<svg width="318" height="482" viewBox="0 0 318 482" fill="none" xmlns="http://www.w3.org/2000/svg">
<path id="KR50000" d="M99.7058 456.343C100.162 448.037 98.4067 446.558 90.46 445.148C88.7877 444.927 87.5853 445.494 85.9269 445.991C82.527 447.055 76.8469 448.824 70.7521 450.732C60.4973 453.938 49.1093 457.476 45.3225 458.678C42.8348 459.466 41.7154 461.318 39.7805 463.336C38.3432 464.994 36.6709 466.68 35.4271 468.477C33.9207 470.357 35.2474 472.236 36.8783 473.936C39.0342 476.092 41.287 479.243 43.8023 480.791C46.2761 481.841 48.1972 478.663 49.98 477.281C51.445 475.94 52.8132 475.318 54.7342 475.401C59.5299 475.581 72.3276 476.313 77.1095 476.52C78.4777 476.576 79.6386 476.576 80.8686 475.954C85.2358 473.425 90.1006 469.887 94.4817 467.081C99.2497 464.441 99.9684 462.037 99.7196 456.619V456.329L99.7058 456.343Z" fill="#6287A3"/>
<path id="KR51000" d="M113.181 80.7038L118.709 97.3712L134.547 103.521L128.618 138.75L158.774 133.304L195.675 149.115L196.089 148.507L254.135 139.869C247.584 126.781 237.537 108.552 231.29 95.6575C228.567 90.4058 227.392 87.4758 224.186 83.2468C217.87 74.6919 201.673 52.6622 193.256 40.9011C188.999 32.2909 184.342 19.0372 180.596 10.2336C179.325 6.87522 176.754 4.27698 173.52 2.75674C165.56 -0.905669 168.476 9.65312 166.182 14.6008C164.357 18.9543 160.363 23.1971 156.964 26.21L156.825 26.3067C154.808 27.8408 153.232 27.5782 149.57 27.7717C131.783 28.3936 97.7984 29.8171 87.3778 30.1764C86.7283 30.1764 86.1616 30.2317 85.6365 30.3284L118.695 69.7442L113.167 80.7176L113.181 80.7038Z" fill="#516987" stroke="white" stroke-width="2.07306" stroke-linejoin="round"/>
<path id="KR28000" d="M57.9403 110.708C58.2029 110.363 58.4655 110.031 58.7281 109.685C57.8989 108.442 55.3145 104.351 54.5958 103.563C53.6698 102.54 50.9887 98.7672 50.0904 97.3852H38.7714L36.9333 78.7691C33.4644 78.1334 29.954 77.1521 26.4575 77.5529C22.2561 78.2025 17.9994 80.8007 15.2491 84.007C13.6183 86.0939 14.4752 88.6507 15.4011 90.9034C17.2807 95.4227 20.4594 102.803 22.491 107.516C23.5552 109.893 24.7299 112.463 27.3281 113.348C30.728 114.771 36.2976 113.154 38.7853 116.416C40.8583 120.051 39.2137 125.206 39.6559 129.269C39.6283 130.333 39.8356 131.342 40.1811 132.323C43.2354 128.592 46.3588 124.902 49.4408 121.184C50.9887 119.318 52.5642 117.494 54.0568 115.6C55.3421 113.984 56.6689 112.353 57.9403 110.722V110.708Z" fill="#6287A3" stroke="white" stroke-width="2.07306" stroke-linejoin="round"/>
<path id="KR46000" d="M115.254 315.596C115.088 315.596 114.936 315.596 114.853 315.582C113.568 315.389 112.31 315.264 111.011 315.195C108.827 315.071 106.658 315.002 104.474 314.919C104.115 314.919 103.755 314.891 103.382 314.877C94.4403 314.255 85.4847 313.62 76.5429 312.998C66.841 312.32 57.139 311.629 47.4371 310.952L28.7934 309.639L27.0935 309.515C23.9839 316.273 20.8605 323.529 17.9996 329.541C16.894 331.918 15.36 334.018 12.8585 334.958C8.83672 336.52 -0.67172 337.266 5.06375 342.587C8.11806 345.199 12.0707 346.858 14.6551 350.078C18.1517 354.97 20.819 361.383 22.6848 366.648C23.4034 369.15 22.1319 371.292 20.8052 373.379C16.4241 380.386 7.20591 394.4 2.83866 401.614C1.29078 404.116 1.89888 407.211 4.55239 408.704C7.42704 410.639 13.3007 409.506 16.7005 407.308C18.1517 406.493 19.5337 405.429 20.6255 404.185C23.0994 401.448 24.0668 397.869 26.0984 397.288C27.8536 396.749 29.5397 398.836 30.8664 400.025C38.3433 408.704 50.3947 405.373 60.0413 402.734C68.5409 401.034 69.2042 397.233 71.5399 390.461C74.0276 384.228 79.6939 391.456 83.1352 393.349C86.9911 396.196 91.8559 396.114 96.5687 395.699C100.742 395.353 105.096 395.271 108.523 392.7C115.323 387.821 121.819 379.944 128.991 376.033C135.832 373.835 144.166 374.388 151.532 372.688C154.67 371.9 156.231 369.026 153.854 366.496C151.284 363.304 146.06 361.839 144.83 357.955C144.498 355.841 145.769 353.809 147.552 352.386C147.552 352.386 116.194 316.01 115.973 315.748C115.862 315.624 115.558 315.61 115.281 315.596H115.254ZM56.5171 343.389L44.0788 336.478L51.1824 322.893H66.9792L75.8657 337.446L56.5171 343.389Z" fill="#A1C9E5" stroke="white" stroke-width="2.07306" stroke-linejoin="round"/>
<path id="KR52000" d="M140.822 261.848L140.974 261.903C141.126 259.747 141.209 257.578 141.319 255.422C141.374 254.33 141.444 253.238 141.499 252.132C141.526 251.593 141.485 251.041 141.706 250.543C142.204 249.396 137.588 250.087 136.828 250.087C135.1 250.087 133.372 250.087 131.645 250.087C130.069 250.087 128.508 250.087 126.932 250.115C123.698 250.142 120.492 250.101 117.272 250.101H59.0186C58.2171 250.101 45.1015 249.741 45.0324 250.101C44.9356 250.695 44.7145 251.276 44.3137 251.828C42.9317 253.722 40.9416 255.615 41.0245 258.13C41.1074 260.577 42.9317 263.216 43.9268 265.538C45.295 268.579 45.5023 271.191 44.7422 274.093C41.5082 282.344 34.9573 293.151 30.9494 301.444C29.6779 303.945 28.3788 306.682 27.0935 309.501L115.268 315.692L140.849 261.848H140.822Z" fill="#A1C9E5" stroke="white" stroke-width="2.07306" stroke-linejoin="round"/>
<path id="KR29000" d="M51.1823 322.879L44.0786 336.478L56.517 343.389L75.8655 337.446L66.979 322.879H51.1823Z" fill="#A1C9E5" stroke="white" stroke-width="2.07306" stroke-linejoin="round"/>
<path id="KR30000" d="M113.181 215.356L102.456 207.672L97.9787 212.357L95.0625 213.186L93.1277 226.91L99.3607 235.589L109.38 230.572L109.035 230.061L113.181 215.356Z" fill="#78A5C1" stroke="white" stroke-width="2.07306" stroke-linejoin="round"/>
<path id="KR43000" d="M137.367 221.133L145.313 185.228L169.845 167.869L179.326 173.052L195.675 149.142L158.788 133.332C157.918 132.959 155.167 133.981 154.269 134.147L144.014 135.999C138.901 136.925 131.134 136.815 126.919 139.938C124.79 141.514 122.883 143.504 120.907 145.245L103.272 160.793C102.747 161.249 95.021 167.496 95.2145 167.897C95.2145 167.897 101.89 181.261 102.125 181.703C102.429 182.353 100.107 183.97 99.7338 184.274C98.9322 184.937 98.103 185.573 97.2876 186.223C96.5966 186.775 95.9608 187.287 95.3251 187.909C94.9796 188.254 95.9055 191.018 96.0161 191.474C96.334 192.856 96.7071 194.225 97.0803 195.593C97.8404 198.329 98.6696 201.038 99.3883 203.775C99.5679 204.479 99.7614 205.184 99.9411 205.903C100.176 206.801 101.406 207.147 102.125 207.561C103.908 208.57 105.469 209.897 107.128 211.086C109.145 212.523 111.177 213.946 113.195 215.397C113.195 215.397 109.118 229.84 109.049 230.089C108.993 230.31 109.961 231.636 110.099 231.885C110.569 232.687 111.08 233.475 111.619 234.249C112.656 235.741 113.775 237.192 114.784 238.713C117.161 242.278 119.538 245.844 121.916 249.41L122.413 250.142H140.753L153.274 230.102L137.381 221.174L137.367 221.133Z" fill="#78A5C1" stroke="white" stroke-width="2.07306" stroke-linejoin="round"/>
<path id="KR36000" d="M102.457 207.672L99.9413 205.875L95.2285 187.798L95.2838 187.757L89.0508 183.79H82.804C82.804 183.79 90.3914 214.499 90.4052 214.527C90.4328 214.61 97.5227 212.868 98.0064 212.371L102.47 207.7L102.457 207.672Z" fill="#78A5C1" stroke="white" stroke-width="2.07306" stroke-linejoin="round"/>
<path id="KR44000" d="M69.3841 164.884C66.2607 165.34 63.9389 164.842 62.2804 164.068C61.9487 165.437 59.9586 165.506 56.545 163.502C53.0622 161.443 50.0908 158.43 46.2349 156.923C28.144 150.027 30.9772 152.307 18.0413 164.773C13.7984 169.168 7.12319 175.111 4.44203 179.022C3.64045 180.708 4.98103 182.146 7.64837 185.366C9.11333 187.121 10.9514 189.305 12.9278 191.668C19.4095 199.214 26.0433 207.713 31.765 213.877C38.15 219.198 37.6525 222.584 35.5241 230.019C35.0542 232.383 35.6762 234.718 36.9891 236.722C38.9516 240.551 45.765 245.692 45.0187 250.087H122.385L109.367 230.572L99.3468 235.575L93.1138 226.896L95.0486 213.172L90.3635 214.499L82.7623 183.763H89.0091L95.2421 187.729L102.097 181.662L95.1868 167.841L96.4859 166.694L85.6369 161.069C85.6369 161.069 77.2341 163.695 69.3703 164.856L69.3841 164.884Z" fill="#78A5C1" stroke="white" stroke-width="2.07306" stroke-linejoin="round"/>
<path id="KR41000" d="M118.709 97.3851L113.181 80.7177L118.709 69.7443L85.6504 30.3285C83.0107 30.8122 81.7254 32.4983 79.2792 35.0551C71.0975 44.0245 55.052 59.4895 47.8516 68.1411C45.5988 71.154 47.3126 76.2952 44.1892 78.6999C42.3787 79.9437 39.4488 79.1698 37.1408 78.8105C37.0717 78.8105 37.0025 78.7828 36.9473 78.769L38.7854 97.3851H50.1043L53.5318 102.278L75.8655 89.9635L82.7757 94.2755V113.14L73.1014 116.734L58.0787 110.473L40.1812 132.309C41.121 134.949 43.1941 137.381 45.3639 140.145C49.9799 146.061 55.204 152.75 59.7233 158.554C61.7411 160.987 62.5427 162.949 62.2662 164.069C63.9385 164.842 66.2465 165.354 69.3699 164.884C77.2337 163.723 85.6366 161.097 85.6366 161.097L96.4856 166.722L128.12 138.846L128.604 138.763L134.533 103.535L118.695 97.3851H118.709Z" fill="#3D5575" stroke="white" stroke-width="2.07306" stroke-linejoin="round"/>
<path id="KR47000" d="M195.73 149.184C193.74 150.663 192.704 153.496 191.335 155.5L186.015 163.267C183.789 166.515 181.689 169.887 179.325 173.038L169.845 167.855L145.313 185.214L137.367 221.119L153.26 230.047L140.739 250.087H141.61L140.974 261.889L167.081 272.89L172.609 285.329L179.588 286.006L182.2 258.047L199.213 250.087L208.625 253.542V266.008L192.593 287.25L228.941 290.746L237.565 278.419L268.757 284.389C270.526 272.655 272.862 256.748 273.968 249.492C274.106 248.235 274.797 245.664 273.235 245.706C269.932 246.176 261.709 253.68 258.751 247.475C256.941 242.762 258.959 237.178 257.853 232.272C257.121 228.223 255.158 225.611 254.895 222.46C254.716 219.018 255.752 216.904 256.816 212.855C258.599 206.525 260.659 199.421 262.469 193.022C263.948 187.591 265.399 184.219 264.114 178.456C262.635 169.763 261.17 159.687 259.47 151.298C258.351 148.424 256.485 144.457 254.177 139.855C253.956 139.413 245.235 141.182 244.599 141.279C237.592 142.315 230.599 143.366 223.592 144.402C217.083 145.369 210.573 146.337 204.064 147.304C202.046 147.608 200.015 147.912 197.997 148.203C197.126 148.327 196.394 148.673 195.758 149.142L195.73 149.184Z M309.251 97.3574C308.021 97.3159 306.003 98.6427 304.593 99.2646C303.446 99.9971 301.332 100.412 301.138 101.683C301.207 102.07 301.525 102.429 301.829 102.775C303.806 104.558 306.777 108.11 309.168 109.561C309.859 109.81 310.55 109.547 311.213 109.243C312.651 108.483 315.014 107.211 315.898 106.424C316.119 106.189 316.368 105.885 316.341 105.553C316.037 104.171 314.71 103.176 313.825 101.973C312.554 100.647 310.743 97.7996 309.43 97.3989L309.265 97.3712L309.251 97.3574Z" fill="#6287A3" stroke="white" stroke-width="2.07306" stroke-linejoin="round"/>
<path id="KR27000" d="M208.625 253.556L199.213 250.101L182.2 258.061L179.588 286.006L192.593 287.264L208.625 266.022V253.556Z" fill="#6287A3" stroke="white" stroke-width="2.07306" stroke-linejoin="round"/>
<path id="KR48000" d="M245.484 307.69L230.102 298.071C230.102 298.071 230.102 290.94 230.088 290.857C229.964 290.401 222.141 290.041 221.533 289.972C217.581 289.585 213.628 289.281 209.675 288.894C201.452 288.093 193.27 287.084 185.047 286.227C182.242 285.923 179.422 285.716 176.589 285.716C175.262 285.591 173.95 285.453 172.623 285.329L167.095 272.89C166.597 272.49 165.685 272.282 165.091 272.02C159.618 269.601 154.173 266.92 148.561 264.778C146.447 263.976 144.305 263.23 142.204 262.387C141.748 262.207 141.292 262.014 140.85 261.834L115.268 315.678L115.973 315.734L147.553 352.371C148.935 351.266 150.621 350.533 152.113 350.395C155.886 349.939 158.291 352.828 161.677 353.767C165.104 354.859 169.969 354.168 173.797 355.094C176.175 355.536 178.524 356.462 180.791 357.084C186.001 358.522 188.088 351.777 189.774 347.963C190.188 347.051 190.631 346.138 191.197 345.351C193.215 342.393 195.634 342.117 197.265 340.749C200.167 338.316 200.402 334.695 205.197 336.492C209.012 337.86 212.453 339.85 216.143 340.61L219.626 328.158L245.512 307.676L245.484 307.69Z" fill="#6287A3" stroke="white" stroke-width="2.07306" stroke-linejoin="round"/>
<path id="KR31000" d="M237.565 278.432L228.941 290.76L230.102 290.871V298.085L245.429 307.663L256.195 306.833C256.54 305.963 256.872 305.161 257.176 304.442C258.019 302.508 259.277 300.545 261.225 299.854C263.81 298.997 266.56 299.177 267.044 295.653C267.458 293.123 268.066 289.102 268.771 284.417L237.579 278.446L237.565 278.432Z" fill="#6287A3" stroke="white" stroke-width="2.07306" stroke-linejoin="round"/>
<path id="KR26000" d="M245.484 307.69L219.598 328.172L216.115 340.624C218.576 341.136 221.16 341.094 224.048 339.961C228.305 338.717 234.842 336.741 239.071 335.442C241.006 334.82 243.01 334.253 244.586 333.051C246.313 331.655 247.059 329.499 247.93 327.453C250.058 322.188 253.693 312.956 256.181 306.806L245.415 307.635L245.484 307.676V307.69Z" fill="#6287A3" stroke="white" stroke-width="2.07306" stroke-linejoin="round"/>
<path id="KR11000" d="M58.0787 110.473L73.1014 116.734L82.7757 113.14V94.2755L75.8655 89.9635L53.5317 102.277L58.7282 109.685L58.0787 110.473Z" fill="#A1C9E5" stroke="white" stroke-width="2.07306" stroke-linejoin="round"/>
</svg>
