<svg width="557" height="425" viewBox="0 0 557 425" fill="none" xmlns="http://www.w3.org/2000/svg">
<path id="KR11650" d="M423.305 350.719L375.351 360.31L366.171 334.278H353.429L331.521 272.431C331.193 272.732 330.864 273.047 330.535 273.349C318.574 284.57 302.571 301.244 293.117 304.916L287.664 345.238L299.214 374.107C304.736 369.407 309.586 365.311 312.669 363.009C314.642 361.543 315.532 361.954 317.437 364.516C320.314 368.243 323.451 374.874 326.973 378.094C328.959 379.669 331.425 378.669 333.604 377.957C339.125 376.011 348.908 372.298 353.416 370.791C358.513 368.873 357.718 372.517 357.814 378.149C357.937 386.493 357.458 395.891 358.115 402.632C358.581 405.14 360.157 406.606 362.075 408.428C365.075 411.182 369.021 414.689 372.2 417.553C379.53 424.499 380.338 424.499 390.573 421.924C395.108 420.923 400.575 419.635 404.863 418.649C408.33 417.827 410.084 417.347 412.043 414.799C416.276 409.25 430.073 390.89 438.691 379.45L421.839 360.296L423.319 350.705L423.305 350.719Z" fill="#78A5C1" stroke="white" stroke-width="2.05517" stroke-linejoin="round"/>
<path id="KR11680" d="M404.123 306.875L398.506 279.898C391.806 279.624 385.326 278.144 379.489 275.061C373.83 272.047 368.446 267.909 362.801 264.854C349.442 256.619 340.934 263.717 331.521 272.417L353.429 334.264H366.171L375.351 360.296L423.305 350.705L421.825 360.296L438.678 379.45C440.856 376.559 442.72 374.093 444.007 372.408C445.556 370.394 446.583 369.667 448.899 370.448C451.817 371.407 457.133 374.819 460.038 375.901C461.75 376.669 463.477 376.504 464.751 375.134C466.82 373.257 470.601 369.818 475.246 365.584L445.227 320.549L404.123 306.848V306.875Z" fill="#78A5C1" stroke="white" stroke-width="2.05517" stroke-linejoin="round"/>
<path id="KR11740" d="M554.863 235.273C551.438 227.614 538.326 196.061 533.764 186.127C532.284 182.812 531.462 182.77 528.626 184.963C524.104 188.429 512.678 197.581 507.348 201.705C505.115 203.5 502.731 204.761 499.881 205.035C484.933 206.158 483.439 204.131 470.958 214.201C468.067 216.571 464.902 218.037 465.135 221.846C465.34 228.793 464.094 237.78 460.531 246.22L471.246 252.071L465.491 268.512L499.251 287.009C503.964 277.034 509.376 265.799 513.829 256.277C515.651 252.482 517.281 248.961 519.035 245.302C520.898 241.37 521.556 241.233 526.05 239.726C530.16 238.356 533.695 238.356 538.381 238.356C542.491 238.356 548.177 237.986 552.068 237.876C555.192 237.78 555.686 237.342 554.85 235.259L554.863 235.273Z" fill="#597A99" stroke="white" stroke-width="2.05517" stroke-linejoin="round"/>
<path id="KR11710" d="M471.259 252.071L460.545 246.22C457.311 253.893 447.488 265.073 439.746 269.882C426.922 278.24 413.714 280.843 398.506 279.898L404.124 306.875L445.227 320.576L475.246 365.612C489.879 352.281 513.157 331.071 519.076 325.618C520.556 324.111 520.706 323.043 520.487 320.549C519.898 316.85 519.418 312.493 517.829 308.999C516.733 306.135 512.828 304.985 509.197 304.163C504.868 303.012 498.771 301.902 495.332 300.504C493.071 299.477 494.154 298.011 495.798 294.435C496.894 292.092 498.058 289.598 499.278 287.05L465.518 268.553L471.273 252.112L471.259 252.071Z" fill="#597A99" stroke="white" stroke-width="2.05517" stroke-linejoin="round"/>
<path id="KR11470" d="M131.786 295.38L149.283 302.765L161.997 283.131L156.174 277.952L169.56 262.347L162.86 241.11L138.294 240.904V264.717L106.617 268.101L91.8886 240.904L81.7224 255.044C82.2842 255.715 82.7774 256.51 83.2432 257.496C84.7367 260.552 86.189 263.895 87.2577 267.128C88.4223 270.745 87.7235 272.938 86.4493 278.075C85.1066 283.542 83.5995 289.475 82.1471 295.229L101.658 305.93L131.8 295.394L131.786 295.38Z" fill="#7CAECE" stroke="white" stroke-width="2.05517" stroke-linejoin="round"/>
<path id="KR11530" d="M172.904 292.818L161.984 283.118L149.269 302.751L131.773 295.366L101.63 305.903L82.1201 295.202C81.5994 297.285 81.0788 299.354 80.5856 301.368C79.4347 306.067 78.8729 308.492 76.3108 310.794C73.5158 313.562 68.6108 315.329 68.2957 319.7C68.8574 325.714 71.9813 333.812 73.5569 340.06C75.1325 345.197 75.1873 348.198 81.9968 348.171C89.1077 348.609 96.9584 349.047 104.042 349.472C110.92 349.746 114.482 351.24 118.661 345.471C122.648 340.827 130.156 331.853 134.075 327.345C137.034 323.18 142.843 323.7 146.296 327.181C147.132 328.03 147.447 328.921 147.502 329.811L182.33 342.786L185.618 333.565L172.89 292.791L172.904 292.818Z" fill="#7CAECE" stroke="white" stroke-width="2.05517" stroke-linejoin="round"/>
<path id="KR11560" d="M210.623 315.096L220.515 284.953H246.752C245.177 282.213 244.533 278.884 243.807 276.733C241.066 268.512 242.163 268.498 238.326 263.032C226.379 250.057 190.619 255.428 167.971 238.52C167.656 238.315 167.354 238.109 167.039 237.904L162.929 241.37L169.547 262.36L156.161 277.966L172.903 292.832L184.7 330.633L201.347 315.096H210.636H210.623Z" fill="#7CAECE" stroke="white" stroke-width="2.05517" stroke-linejoin="round"/>
<path id="KR11500" d="M145.049 220.408C134.28 213.475 121.469 208.899 112.468 198.787C106.398 192.279 103.178 187.306 99.6984 180.756C98.1228 177.674 98.1228 177.276 95.1359 174.755C86.6686 167.617 70.4602 153.943 62.9931 147.668C61.7189 146.737 60.5132 145.312 58.9787 146.065L58.8691 146.134C56.1699 148.422 55.0875 152.066 52.7584 155.848C51.95 157.355 51.2649 159.027 50.9498 160.671C49.8948 164.754 52.731 167.562 52.7721 170.878C44.1678 183.661 9.83275 220.983 2.11903 231.478C1.63949 232.478 2.58486 232.93 5.39359 233.848C15.6009 237.287 28.3156 240.397 38.4544 244.426C42.9347 246.631 45.5653 253.962 50.4155 255.044C54.3477 255.715 58.1429 254.688 62.2532 254.414C66.3773 253.975 71.844 253.359 75.5981 253.044C78.5987 252.715 80.3524 253.427 81.7088 255.044L91.875 240.904L106.604 268.101L138.281 264.717V240.904L162.847 241.11L162.929 241.357L167.039 237.89C158.997 232.656 152.79 225.902 145.049 220.394V220.408Z" fill="#7CAECE" stroke="white" stroke-width="2.05517" stroke-linejoin="round"/>
<path id="KR11590" d="M261.632 324.687L272.593 345.238L288.514 347.376L287.664 345.238L293.117 304.916C292.747 305.067 292.364 305.149 292.021 305.299C281.581 309.656 253.151 299.271 247.383 285.748C247.164 285.501 246.972 285.227 246.753 284.967H220.515L210.623 315.109H201.333L184.687 330.647L185.467 333.154L223.365 320.357L261.605 324.7L261.632 324.687Z" fill="#A1C9E5" stroke="white" stroke-width="2.05517" stroke-linejoin="round"/>
<path id="KR11545" d="M202.717 371.27L197.182 341.511L183.44 339.73L182.344 342.813L147.515 329.838C147.652 332.291 145.693 334.825 145.954 337.045C152.078 349.075 185.495 403.605 192.537 416.073C194.086 418.882 194.743 418.087 197.1 415.265C200.155 411.538 206.649 403.468 211.417 397.59C213.637 394.877 216.843 390.479 218.049 390.945C218.117 390.945 218.172 390.972 218.241 391C213.377 379.299 202.717 371.284 202.717 371.284V371.27Z" fill="#A1C9E5" stroke="white" stroke-width="2.05517" stroke-linejoin="round"/>
<path id="KR11620" d="M288.514 347.376L272.593 345.238L261.632 324.687L223.392 320.344L185.495 333.14L185.632 333.592L183.454 339.731L197.196 341.512L202.731 371.271C202.731 371.271 213.391 379.272 218.254 390.986C219.077 391.219 219.899 392.357 220.981 394.234C223.79 399.015 226.763 405.427 229.859 410.223C231.64 412.799 233.189 412.634 236.929 411.319C246.41 407.88 257.577 404.057 266.702 400.522C274.141 395.658 288.048 383.629 299.228 374.107L288.527 347.376H288.514Z" fill="#A1C9E5" stroke="white" stroke-width="2.05517" stroke-linejoin="round"/>
<path id="KR11440" d="M132.842 196.746C133.842 197.376 134.746 198.02 135.787 198.691C142.049 202.843 151.05 209.049 158.038 214.776C162.737 218.585 166.053 221.832 170.602 225.121C182.536 233.588 202.567 239.753 220.529 242.48C229.804 243.754 242.149 246.645 248.863 254.003C249.041 254.181 249.178 254.372 249.342 254.551L265.742 235.629L264.372 226.039L226.009 227.409L216.418 212.337L164.354 176.715L162.011 170.85C159.394 170.713 156.997 171.029 155.544 172.536C153.174 175.139 152.599 179.373 150.256 182.058C149.036 183.551 147.378 184.565 145.625 185.415C140.459 187.991 133.266 190.101 128.868 192.95L128.813 193.019C127.991 193.951 129.951 194.786 132.842 196.759V196.746Z" fill="#516987" stroke="white" stroke-width="2.05517" stroke-linejoin="round"/>
<path id="KR11410" d="M253.165 192.635L258.892 164.37L247.931 145.202L208.198 180.825L197.182 175.618L185.796 191.388L216.418 212.337L226.009 227.409L257.878 226.271L271.223 206.857L253.165 192.635Z" fill="#516987" stroke="white" stroke-width="2.05517" stroke-linejoin="round"/>
<path id="KR11380" d="M247.944 119.101L262.728 107.455C262.002 106.894 261.673 105.633 261.632 103.386C261.44 99.0978 261.371 91.7266 261.166 87.4793C261.043 85.0405 260.741 82.6839 259.07 80.8068C255.699 77.2034 249.082 72.2573 245.177 68.8457C242.642 66.955 241.409 65.2286 238.902 65.119C237.956 65.256 237.011 65.8315 236.134 66.4617C229.859 71.079 211.431 84.8349 202.854 91.1922C199.415 93.9599 197.62 94.2613 196.593 97.7688C193.441 108.401 181.097 158.574 176.466 171.631C175.877 172.289 174.164 172.317 172.931 172.207C170.382 172.289 165.943 171.042 162.011 170.837L164.354 176.701L185.796 191.375L197.182 175.605L208.197 180.811L247.218 145.819L249.328 130.336L247.944 119.088V119.101Z" fill="#516987" stroke="white" stroke-width="2.05517" stroke-linejoin="round"/>
<path id="KR11170" d="M265.742 235.629L249.342 254.55C256.521 262.566 253.233 274.39 260.276 282.734C265.29 288.502 274.004 292.845 281.677 292.776C287.02 292.776 291.953 289.762 295.775 286.2C304.325 277.801 314.203 268.484 323.972 260.976C325.767 259.661 327.452 258.373 329.124 257.154L320.492 240.89L322.643 238.287L265.249 232.19L265.742 235.629Z" fill="#6287A3" stroke="white" stroke-width="2.05517" stroke-linejoin="round"/>
<path id="KR11140" d="M271.223 206.857L257.878 226.272L264.372 226.039L265.249 232.19L322.643 238.301L345.209 210.967L342.345 201.651L270.661 206.419L271.223 206.857Z" fill="#6287A3" stroke="white" stroke-width="2.05517" stroke-linejoin="round"/>
<path id="KR11110" d="M296.309 170.809L280.813 161.63L296.309 151.696L283.129 100.605C278.032 102.633 271.414 105.25 267.4 106.825C265.085 107.771 263.605 108.127 262.728 107.455L247.944 119.101L249.328 130.35L247.218 145.832L247.931 145.202L258.892 164.384L253.165 192.635L270.661 206.419L342.345 201.664L339.742 193.211L312.86 170.823H296.309V170.809Z" fill="#6287A3" stroke="white" stroke-width="2.05517" stroke-linejoin="round"/>
<path id="KR11200" d="M343.866 212.584L320.478 240.904L329.11 257.168C333.412 254.016 337.563 251.304 342.852 250.016C357.923 246.741 371.008 257.51 383.859 264.32C384.01 264.402 384.175 264.47 384.339 264.553L404.123 228.779V216.53L363.02 197.266L343.88 212.584H343.866Z" fill="#3D5575" stroke="white" stroke-width="2.05517" stroke-linejoin="round"/>
<path id="KR11230" d="M413.714 202.747L403.274 146.928L390.422 150.683L339.728 193.156L345.209 210.968L343.866 212.584L363.02 197.266L404.123 216.53V216.037L413.714 202.747Z" fill="#3D5575" stroke="white" stroke-width="2.05517" stroke-linejoin="round"/>
<path id="KR11215" d="M404.123 216.037V228.779L384.339 264.553C401.082 272.828 425.237 272.499 439.226 255.291C445.418 248.509 450.186 239.918 452.68 231.135C453.749 227.231 454.023 224.436 453.968 222.819C453.872 221.463 453.201 220.75 451.68 219.476C448.337 216.53 441.377 214.05 444.583 208.611C445.254 207.076 446.158 205.049 447.172 202.747H413.687L404.096 216.037H404.123Z" fill="#3D5575" stroke="white" stroke-width="2.05517" stroke-linejoin="round"/>
<path id="KR11260" d="M463.189 127.281C461.476 123.253 455.009 123.349 451.515 121.554C450.282 121.074 449.542 120.499 449.145 119.828L405.699 133.131L403.329 147.216L413.714 202.733H447.2C450.954 194.266 456.503 181.812 459.928 174.098C462.257 168.974 463.888 166.055 463.614 160.794C463.244 152.34 464.312 135.926 463.189 127.267V127.281Z" fill="#3D5575" stroke="white" stroke-width="2.05517" stroke-linejoin="round"/>
<path id="KR11305" d="M335.618 50.6644L313.888 22.4127C302.776 40.1694 288.089 63.6804 283.773 70.5858C281.8 73.6275 282.965 74.9976 284.54 78.9709C286.116 82.6428 288.692 88.3151 290.116 91.7952C291.445 94.782 291.391 96.4261 289.705 97.6866L321.917 121.897L338.358 141.078L357.54 142.448L378.091 123.267L331.508 78.0529L335.618 50.6507V50.6644Z" fill="#8DB5CE" stroke="white" stroke-width="2.05517" stroke-linejoin="round"/>
<path id="KR11320" d="M384.339 92.672L382.599 65.1327L376.721 47.4035L377.886 17.905C377.091 17.7132 376.296 17.4255 375.433 17.1377C366.253 13.9454 338.426 4.19015 330.836 1.57324C329.069 0.997789 327.438 0.463457 326.479 2.31311C324.698 5.12184 319.793 12.9452 313.888 22.399L335.618 50.6506L331.507 78.0529L367.336 112.826L375.351 94.4942L384.339 92.6583V92.672Z" fill="#8DB5CE" stroke="white" stroke-width="2.05517" stroke-linejoin="round"/>
<path id="KR11350" d="M453.9 97.9195C451.653 93.4941 449.282 85.7255 445.556 83.4923C443.651 82.3414 441.308 82.1906 439.171 81.9988C437.458 81.7933 435.088 81.5878 434.855 79.6422C435.129 65.4616 437.609 32.0582 437.938 22.5497C437.993 21.481 437.938 20.563 437.54 19.6587C436.335 17.7406 434.403 16.85 432.019 15.4251C429.429 13.9591 426.484 12.2601 423.853 10.8215C418.345 7.32773 415.317 8.30052 409.385 10.1502C400.314 12.589 389.833 16.028 380.996 18.0831C379.886 18.2612 378.886 18.1379 377.899 17.905L376.735 47.4035L382.613 65.1328L384.353 92.672L375.365 94.508L367.35 112.84L378.105 123.28L393.176 136.981L449.173 119.841C448.378 118.512 449.008 116.813 450.159 114.758C453.173 109.305 457.667 104.619 453.927 97.9195H453.9Z" fill="#8DB5CE" stroke="white" stroke-width="2.05517" stroke-linejoin="round"/>
<path id="KR11290" d="M393.163 136.981L378.091 123.28L357.54 142.462L338.358 141.092L321.917 121.91L289.705 97.7002C289.048 98.1934 288.157 98.6319 287.006 99.0703C285.91 99.5087 284.581 100.043 283.143 100.619L296.323 151.71L280.827 161.643L296.323 170.823H312.874L339.756 193.211V193.17L390.436 150.696L403.288 146.942L403.343 147.243L405.713 133.159L393.176 136.995L393.163 136.981Z" fill="#8DB5CE" stroke="white" stroke-width="2.05517" stroke-linejoin="round"/>
</svg>
