<svg width="1021" height="516" viewBox="0 0 1021 516" fill="none" xmlns="http://www.w3.org/2000/svg">
<path id="south-america" d="M329.197 320.06C318.278 314.703 293.89 305.126 283.299 299.043C279.997 296.097 279.462 290.219 275.777 285.027C272.941 280.738 268.433 277.861 263.555 276.422C260.157 275.34 257.39 275.011 254.293 272.97C248.47 269.325 245.141 261.529 238.195 259.68C233.906 258.597 227.384 259.515 222.438 258.556C217.273 257.83 213.313 254.172 208.066 254.062C201.215 253.528 196.283 258.871 190.734 261.913C186.706 266.215 184.733 269.654 183.774 271.97C184.541 273.052 184.952 274.573 185.158 276.313C187.857 293.494 176.786 294.59 172.964 307.003C172.333 310.442 173.197 314.84 173.827 318.567C174.498 323.294 176.471 326.966 179.143 330.994C184.5 339.475 192.118 352.025 197.228 359.999C200.681 365.671 209.176 369.357 213.656 373.207C214.807 374.139 215.78 375.194 215.971 376.687C218.259 400.664 223.767 463.47 225.179 478.514C225.411 481.775 226.562 482.761 229.029 485.844C233.413 491.091 238.866 497.791 243.442 503.258C247.018 507.272 250.224 512.78 255.211 513.369C259.253 514.274 264.254 514.904 268.241 515C271.79 514.945 267.666 511.109 266.337 509.547C263.007 505.491 258.102 501.956 256.266 496.914C255.157 492.681 257.513 487.735 255.362 483.556C254.704 481.775 252.814 480.487 253.033 478.541C253.17 477.61 253.869 476.568 254.746 475.198C263.665 460.483 287.888 424.764 295.013 411.762C296.589 407.227 295.52 399.897 298.123 395.745C299.671 393.211 303.179 392.293 306.056 391.539C310.18 390.594 314.387 389.128 316.565 385.278C318.949 380.962 321.84 375.262 323.32 370.22C325.032 364.37 322.717 357.095 324.21 351.244C326.211 344.01 332.773 337.776 333.705 330.254C334.472 325.335 333.472 321.746 329.211 320.06H329.197Z" fill="#516987" stroke="white" stroke-width="1.37011" stroke-linejoin="round"/>
<path id="north-america" d="M222.562 20.4581C233.536 20.2663 257.842 18.5263 267.419 18.1426C270.529 18.0193 272.584 17.6494 275.708 16.5944C280.915 14.9092 286.984 12.8677 292.3 11.1277C304.344 7.31877 309.851 4.53745 322.086 1.33139C325.457 0.454518 328.101 -0.0387234 325.854 0.00237998C317.483 0.468218 288.039 1.7287 271.927 2.81109C261.528 6.19527 232.7 16.5122 222.562 20.4581Z M184.966 22.0885C180.595 21.6363 175.238 21.4445 170.785 22.6091C166.154 24.1573 159.824 27.4867 155.18 29.6241C153.892 30.3091 151.864 31.186 153.618 32.1451C157.632 33.8714 165.826 36.1458 171.347 38.0229C173.471 38.6668 175.567 39.4478 177.718 39.5711C187.843 38.9271 204.983 36.7624 212.587 35.8033C214.369 35.3374 211.683 34.3646 210.724 33.8029C205.559 31.2819 198.968 28.1306 193.735 25.5959C190.57 24.0888 187.528 22.4447 185.171 22.1158L184.966 22.0747V22.0885Z M339.336 1.11223C331.568 3.1948 318.223 7.44212 311.564 9.48359C310.372 9.88092 308.591 10.5797 310.482 11.4977C312.783 12.6348 315.853 13.5939 318.675 14.6626C322.128 16.156 327.827 17.2521 329.663 19.8005C330.348 20.9514 330.102 22.5956 329.513 25.0481C328.595 28.7063 327.087 34.3922 325.95 38.7766C324.991 42.6129 323.95 45.6271 324.484 49.3949C325.786 54.9165 326.361 62.0137 330.348 66.3706C333.705 69.5082 339.542 71.7141 342.734 67.9463C347.16 63.2057 352.613 56.3688 356.709 51.7653C359.312 48.8195 360.313 48.2715 363.615 47.4494C365.738 46.9151 368.862 46.1478 372.534 45.2435C383.111 42.6266 394.565 39.8179 405.17 37.1872C408.746 36.2967 409.417 35.776 411.144 32.063C412.117 29.9531 413.089 27.802 414.103 25.5824C417.2 18.6359 421.817 9.00405 424.42 2.55083C424.653 1.79726 424.626 1.38625 424.324 1.15333C416.583 0.317559 382.7 1.12592 359.532 0.851901C349.256 1.03002 345.228 0.495662 339.418 1.09851L339.295 1.1259L339.336 1.11223Z M287.011 106.953C284.751 107.844 282.01 110.79 279.942 112.324C279.394 112.886 278.64 113.242 278.983 113.804C282.23 114.873 289.121 115.708 292.341 116.393C293.41 116.626 294.246 116.188 294.451 115.092C294.78 113.79 295.218 111.324 295.314 109.872C295.342 109.187 295.218 108.515 294.616 108.132C292.547 107.268 289.368 106.789 287.203 106.899L287.011 106.94V106.953Z M177.211 209.808C178.937 210.369 184.925 213.274 187.898 214.562C192.721 216.754 197.859 219.056 199.845 220.001C200.106 220.152 200.571 220.303 200.475 220.536C198.79 220.947 196.201 220.7 194.351 220.7C191.734 220.618 190.775 219.851 188.09 217.85C184.856 215.425 180.129 212.151 177.225 209.821V209.794L177.211 209.808Z M211.217 221.837C209.669 221.577 207.545 221.632 205.901 221.714C205.326 221.796 204.641 221.823 204.627 222.467C204.874 223.591 207.025 226.865 208.34 228.208C209.011 228.756 209.847 228.743 210.71 228.674C213.341 228.4 219.136 227.852 220.753 227.592C222.178 227.304 220.123 226.482 219.506 226.071C217.095 224.851 213.766 222.591 211.409 221.878L211.19 221.837H211.217Z M188.789 262.858C184.719 264.187 180.719 263.53 176.06 263.064C169.634 262.803 167.141 260.337 167.922 253.624C168.114 249.787 170.867 244.43 167.127 241.649C163.894 239.333 156.714 240.251 154.769 237.032C152.138 231.962 164.25 218.371 155.659 216.85C153.029 216.343 149.425 217.699 147.206 219.494C145.109 221.152 143.506 223.139 141.15 224.536C137.464 226.66 133.107 227.975 129.901 227.181C126.668 225.578 127.723 220.686 127.257 217.521C127.257 212.178 126.065 206.04 127.312 201.258C129.559 196.065 135.19 192.955 139.355 189.201C142.931 186.187 147.507 185.241 152.056 185.68C156.687 185.995 161.359 185.831 166.401 185.091C169.538 184.803 173.306 183.734 175.964 185.762C178.499 187.941 178.252 192.38 179.746 195.997C183.514 205.519 186.761 195.956 187.268 190.009C188.419 184.132 188.131 179.377 190.611 174.678C192.885 171.335 197.585 169.17 201.12 166.8C207.559 162.826 211.985 160.264 217.492 154.414C222.781 149.262 228.439 143.206 233.783 138.384C236.044 136.438 238.592 135.452 241.36 134.301C247.923 131.602 260.582 126.518 266.625 123.997C268.118 123.354 270.694 122.175 268.858 120.737C264.021 117.928 257.102 111.982 263.884 106.898C265.241 105.994 266.981 105.501 268.625 105.131C274.201 103.884 283.217 102.172 288.149 100.98C299.22 98.1571 286.601 86.2372 284.354 80.4005C282.586 77.0026 282.627 71.2481 280.572 70.248C277.435 68.9601 274.146 73.4403 270.872 71.5222C268.2 70.0698 266.994 66.3432 264.309 64.5757C258.39 60.1092 250.457 62.1369 245.634 67.357C243.935 69.0423 242.428 71.1796 241.606 73.3718C240.318 76.7012 240.702 79.9895 238.003 82.6612C233.112 87.2784 225.658 88.95 219.287 86.7167C214.506 85.4014 207.408 83.5517 203.038 82.2364C201.147 81.6062 199.147 80.743 198.215 78.9756C196.79 76.2901 197.53 72.8786 199.201 70.4535C200.777 68.1106 203.764 66.8775 208.08 64.9045C214.519 62.0273 221.301 58.6979 227.686 56.0536C233.783 53.2312 241.647 56.0673 247.237 52.1077C252.677 47.8329 255.239 39.4753 261.98 36.9543C265.707 35.1183 278.462 37.5297 273.42 42.9279C270.351 45.7641 264.734 48.5728 261.117 51.1075C259.966 51.8885 258.815 52.5872 258.281 53.56C258.185 53.8066 258.226 54.0258 258.39 54.204C258.801 54.6972 259.596 54.7657 260.295 54.9849C263.679 55.6837 271.324 56.6428 276.53 57.41C281.888 58.5198 286.56 57.5196 290.821 54.2176C294.438 51.5459 298.644 49.6552 299.905 45.8463C300.795 36.7624 289.862 31.7615 283.093 27.7608C277.805 24.9521 272.804 20.9102 267.214 21.7734C258.267 22.3077 236.619 23.3216 226.302 24.0067C218.301 23.7875 221.699 35.68 216.328 39.0368C215.3 39.626 214.19 39.763 212.944 39.9959C205.531 40.955 188.761 42.9279 180.28 43.9692C177.088 44.2844 174.827 44.7776 171.895 44.0514C165.318 42.0237 157.29 38.5299 150.631 36.05C146.616 34.3099 142.451 33.8167 138.177 34.7758C132.175 35.8171 125.16 37.516 119.269 38.0503C116.351 38.2147 114.09 37.5708 111.062 36.8994C104.335 35.3101 92.4148 32.4329 86.5644 31.0628C82.3856 29.9393 78.9055 29.9667 74.5897 31.0217C67.1911 32.4877 52.3391 35.4608 45.4611 36.8446C38.4461 37.8174 33.8289 42.1196 27.7456 45.9696C23.4297 48.8468 18.8672 51.8748 14.5514 54.752C10.3451 57.6292 7.01576 59.5063 5.64565 63.9043C3.96041 68.6723 2.08335 74.1939 1.05577 79.0304C0.726941 81.3185 1.85047 81.2637 4.6455 80.4279C7.08429 79.688 10.7151 78.5509 14.935 77.2493C30.2255 72.9197 46.0777 66.8638 56.3672 64.836C61.1626 65.0826 66.5745 67.0145 70.7123 69.5903C73.3703 71.1659 73.384 76.3997 73.8087 80.8937C74.439 88.0457 75.2199 96.239 75.8365 103.213C76.1516 106.981 76.96 112.612 76.2064 114.886L76.1653 115.037C73.3429 121.531 66.2868 130.615 62.6012 136.89C60.5734 139.932 59.3129 143.056 59.6829 146.796C60.2583 152.181 60.3953 158.374 62.4505 163.511C64.2179 167.677 66.7115 169.019 68.4927 173.13C71.959 182.433 73.5347 194.791 77.1381 203.793C79.9742 208.78 84.9751 212.767 88.8663 217.138C94.0042 222.988 99.3065 226.893 106.253 230.647C111.035 233.319 115.666 236.758 120.982 237.84C124.448 238.498 128.024 238.511 131.34 239.854C136.574 241.937 141.273 246.335 146.945 248.321C153.179 250.418 156.385 255.884 159.564 261.173C163.866 267.188 171.402 271.367 178.883 270.325C181.308 269.901 182.842 270.586 183.801 271.942C184.76 269.627 186.733 266.188 190.761 261.886C190.131 262.228 189.487 262.557 188.83 262.831L188.789 262.858Z" fill="#8DB5CE" stroke="white" stroke-width="1.37011" stroke-linejoin="round"/>
<path id="africa" d="M623.826 349.436C621.853 349.299 619.825 353.519 617.346 356.355C614.359 360.862 608.947 361.972 604.878 364.973C601.822 367.74 602.973 376.071 602.356 380.715C602.274 385.634 601.288 390.402 602.809 395.047C604.001 398.445 605.919 403.103 608.632 402.829C612.824 401.87 615.907 397.499 617.113 393.608C618.195 390.114 620.031 383.949 621.867 377.92C623.278 373.248 624.648 368.699 625.566 365.644C626.58 362.63 626.923 359.807 626.306 356.711C625.785 353.779 625.114 349.943 623.922 349.463L623.812 349.422L623.826 349.436Z M566.994 177.679L566.912 177.788C565.788 179.172 563.897 178.829 562.226 178.665C554.868 177.61 537.578 174.938 529.097 173.678C527.137 173.417 525.027 173.102 523.383 174.212C518.917 178.555 520.095 182.638 511.943 179.09C506.312 176.733 497.474 173.13 492.542 170.979C489.637 169.883 487.555 167.43 488.391 164.238C488.5 162.58 489.569 160.347 488.815 158.935C488.363 158.072 487.116 157.963 485.143 158.127C482.883 158.333 479.731 158.689 476.155 159.059C465.51 160.182 451.028 161.689 444.122 162.429C439.971 162.58 436.573 164.512 433.49 167.279C430.133 170.074 426.188 173.28 424.393 176.911C422.173 181.679 421.625 187.379 416.501 190.201C410.856 193.462 405.197 195.791 401.95 202.094C399.333 206.821 395.826 211.507 394.716 216.768C393.798 224.988 394.689 235.401 394.415 244.06C394.415 247.006 394.428 249.102 394.73 250.623C395.113 252.857 396.552 254.295 398.114 255.912C405.636 262.872 419.871 278.546 427.818 285.123C429.298 286.507 433.298 285.273 436.34 284.397C445.533 282.163 455.576 278.053 465.003 276.834C468.264 276.984 470.881 280.067 474.292 282.054C480.567 285.205 484.239 287.233 484.445 294.933C484.938 301.646 485.308 305.688 488.76 312.47C491.432 318.444 494.255 324.678 496.926 330.652C498.735 335.57 502.434 340.79 502.147 345.093C500.913 351.82 497.05 360.479 495.145 366.74C493.104 371.385 494.419 375.071 496.378 379.866C501.434 393.773 512.477 424.422 515.574 432.752C516.724 435.794 518.684 435.986 522.205 435.849C525.342 435.766 530.261 435.492 534.618 435.301C539.496 434.89 542.346 435.438 545.689 433.657C552.594 426.326 564.295 407.446 571.077 398.445C576.283 392.827 572.926 383.853 576.05 377.578C578.749 373.084 585.764 369.33 589.765 365.946C593.451 363.397 595.259 360.849 594.437 356.547C593.492 348.134 590.998 327.5 590.162 319.965C589.82 317.375 590.039 315.087 591.93 313.169C597.095 307.743 607.741 297.303 614.318 290.672C616.825 288.123 618.729 286.452 620.305 283.52C623.442 276.929 627.06 267.352 629.772 260.844C630.951 257.762 631.923 255.117 626.621 256.309C622.497 257.09 615.126 258.912 610.933 259.762C606.933 260.598 605.083 260.79 603.398 257.515C597.328 246.568 575.667 209.273 569.282 197.257C568.528 194.558 570.186 193.024 572.282 193.503C570.583 185.694 568.487 180.323 567.158 177.377C567.103 177.473 567.062 177.583 566.994 177.679Z" fill="#78A5C1" stroke="white" stroke-width="1.37011" stroke-linejoin="round"/>
<path id="oceania" d="M912.358 345.627C910.111 345.627 908.029 346.572 906.028 347.6C902.425 349.491 897.109 352.368 893.684 354.19C888.779 356.684 885.353 359.109 880.681 362.452C869.693 370.179 848.525 385.045 842.003 389.649C840.509 390.731 839.331 391.608 839.126 393.553C838.55 405.734 837.988 421.983 837.934 434.191C838.057 435.986 839.509 435.794 840.92 435.602C849.196 434.369 882.257 428.848 895.478 426.888C897.725 426.655 898.63 427.45 900.822 430.67C902.466 433.081 904.74 436.616 906.576 439.37C908.467 442.206 910.248 445.056 912.18 447.741C914.263 450.632 915.838 451.221 919.77 451.098C925.388 450.879 931.923 450.536 937.417 450.208C940.747 450.112 942.857 449.084 944.734 446.495C948.968 441.233 959.367 428.162 965.354 420.668C967.971 417.325 970.314 414.955 970.506 411.406C970.78 406.446 971.232 401.007 969.519 396.28C965.518 388.429 958.983 377.071 953.777 368.659C952.393 366.782 950.31 366.233 948.118 365.727C942.268 364.384 931.142 362.301 924.374 360.589C918.893 359.301 923.415 353.957 921.51 349.888C919.894 346.764 915.838 345.764 912.577 345.613H912.358V345.627Z M989.564 450.892C986.865 451.441 983.96 453.66 980.617 455.88C975.383 459.374 969.56 463.278 964.149 466.895C961.408 468.868 954.599 472.759 956.024 473.349C956.873 474.034 958.065 474.089 959.216 474.321C962.313 474.719 965.683 475.267 968.245 473.28C977 467.416 1011.6 444.316 1019.16 439.205C1020.84 438.178 1020.38 436.931 1019.06 435.506C1017.75 433.985 1015.27 431.533 1013.18 429.464C1010.57 426.998 1008.94 425.518 1007.29 428.121C1005.51 431.218 1003.74 436.054 1001.98 439.904C999.456 446.59 996.73 449.495 989.77 450.851L989.578 450.906L989.564 450.892Z M975.986 339.968C974.452 335.94 969.821 333.145 967.697 329.364C965.244 325.308 966.573 322.842 963.477 320.842C957.27 317.882 950.228 315.019 943.46 312.237L941.542 336.255C944.295 336.817 947.214 336.749 949.379 335.995C953.119 334.502 956.9 332.364 960.682 335.091C964.683 337.297 969.149 341.64 973.547 342.887C975.534 343.407 977 342.393 975.972 339.968H975.986Z" fill="#516987" stroke="white" stroke-width="1.37011" stroke-linejoin="round"/>
<path id="asia" d="M832.632 296.7C832.536 300.4 834.126 304.729 835.057 308.716C835.55 310.333 836.153 312.004 837.565 312.991C838.962 314.005 841.291 314.512 844.333 315.306C848.155 316.265 852.54 317.499 855.033 317.964C856.609 318.252 857.979 318.184 858.829 316.786C860.897 312.662 862.268 306.784 864.035 301.879C865.104 298.673 865.871 295.919 865.94 292.617C865.967 288.836 866.296 284.246 865.364 280.889C863.98 276.751 861.336 273.244 857.993 274.628C851.8 279.04 845.21 285.109 839.25 289.809C837.03 291.809 832.797 294.467 832.66 296.55L832.632 296.714V296.7Z M905.056 154.578C903.836 156.908 900.466 157.976 898.192 159.292C894.04 161.374 890.67 163.183 887.683 165.334C886.244 166.444 884.299 167.581 883.559 169.184C883.49 169.43 883.504 169.663 883.668 169.855C884.175 170.527 886.587 170.622 889.286 170.636C895.355 170.896 900.37 169.855 905.741 167.266C908.974 165.567 913.825 164.868 915.085 161.045C915.661 158.702 914.455 154.606 913.852 151.139C913.112 147.399 912.701 144.453 912.317 140.576C911.975 136.37 911.632 131.355 907.371 129.341C898.699 124.504 897.315 129.327 898.151 136.753C898.534 140.165 901.137 144.426 903.083 148.139C904.535 150.879 905.604 152.948 905.07 154.428L905.015 154.592L905.056 154.578Z M787.774 282.163C787.171 282.588 787.596 284.068 789.103 286.52C793.159 293.234 801.53 307.099 804.983 312.785C808.449 318.882 815.272 322.266 820.602 326.76C824.219 329.596 826.466 330.912 831.179 331.419C833.097 331.706 835.043 331.967 837.016 332.255C841.195 332.816 846.196 333.638 850.196 334.063C852.745 334.241 854.279 333.748 854.595 332.994C855.321 331.802 851.827 329.994 849.443 329.61C843.88 328.446 834.07 326.514 828.795 325.404C823.698 324.815 822.685 321.157 821.767 316.676C820.451 309.785 815.122 303.551 810.696 298.029C806.188 293.33 800.352 289.822 794.995 285.616C793.309 284.328 788.733 281.437 787.843 282.122L787.788 282.163H787.774Z M868.652 230.236C874.776 227.331 877.174 235.799 879.941 240.827C882.791 247.02 886.586 252.884 888.313 259.378C889.203 264.297 893.642 275.395 888.833 278.587C884.75 280.711 876.995 270.654 875.776 266.804C873.282 260.666 870.583 253.857 868.062 247.623C866.103 242.772 865.144 240.772 865.623 237.018C865.87 234.634 866.514 231.839 868.501 230.359L868.665 230.25L868.652 230.236Z M878.544 320.622C879.339 319.923 878.544 318.183 877.681 315.21C876.133 310.196 874.119 303.304 872.557 298.426C872.063 296.906 871.748 297.673 871.447 298.7C870.351 303.03 866.72 315.539 865.692 320.622C865.733 322.307 867.062 321.896 868.871 321.924C871.269 321.636 876.585 321.691 878.434 320.704L878.53 320.622H878.544Z M732.257 267.16C731.64 269.311 731.599 274.148 731.229 276.737C731.27 277.779 730.448 280.012 731.969 279.341C733.23 278.765 736.874 276.888 738.299 276.107C739.532 275.504 738.902 274.737 738.148 273.86C736.545 272.12 733.901 268.462 732.325 267.16H732.271H732.257Z M955.229 49.6141C953.42 48.1618 950.68 47.97 946.392 47.0109C926.827 43.4486 901.671 37.0365 888.505 35.5431C875.543 34.8991 860.143 34.1044 846.743 33.4468C838.975 32.9261 832.59 33.4193 825.383 31.1861C820.341 29.6926 814.683 27.98 809.668 26.5003C805.202 25.185 802.489 24.7603 798.091 25.9112C793.706 27.0621 788.993 28.7199 784.595 29.9393C779.992 31.2409 778.375 30.9532 773.073 30.2955C766.167 29.446 759.166 28.5692 752.165 27.706C742.642 26.2811 733.024 25.9111 724.214 23.7875C716.72 20.8554 705.937 16.2107 698.443 13.0732C693.743 11.1276 691.88 10.47 687.632 12.073C652.215 22.253 609.07 34.5017 576.352 42.7087C575.078 43.0101 573.954 43.339 572.762 43.6267C566.515 45.7093 561.294 42.6813 555.156 40.8317C549.785 39.0231 543.469 36.9543 538.304 35.2279C538.002 35.1183 537.728 35.0224 537.441 34.9265L534.098 40.8591L543.867 59.6022L534.098 69.9192L539.236 84.2642H543.853L564.405 106.748L578.106 110.296L573.995 117.147L572.625 125.299L590.437 139.069L583.024 143.179L565.775 137.575L553.444 141.809L543.853 136.328L539.331 147.646C540.4 149.358 540.715 152.044 541.948 153.647C545.333 158.826 555.691 161.169 561.116 161.552C563.624 161.922 567.706 159.716 568.953 162.785C569.721 164.649 568.981 169.088 568.474 172.568C568.159 174.198 567.953 175.966 567.131 177.363C568.474 180.309 570.57 185.68 572.255 193.49C573.53 193.777 574.982 194.805 576.119 196.792C583.23 208.67 595.684 227.345 601.151 237.977C603.014 241.745 601.48 249.637 607.358 249.253C613.235 248.102 619.921 245.43 625.84 243.718C631.869 242.087 635.239 239.964 639.377 235.374C643.994 230.661 651.434 223.248 655.133 219.33C656.216 218.083 657.531 216.603 656.819 214.945C654.133 211.068 648.023 208.753 645.83 204.094C644.611 201.971 644.597 200.299 645.926 199.792C650.9 199.312 656.271 203.793 661.299 204.478C667.081 205.916 673.849 203.848 679.042 205.396C683.947 206.999 688.002 210.671 692.359 213.452C695.237 215.48 697.895 217.11 700.018 219.207C701.402 220.618 702.114 222.262 702.909 224.098C706.156 231.757 714.24 250.952 718.871 261.927C720.693 266.051 721.611 269.174 722.872 269.312C725.831 268.531 728.01 263.461 729.311 260.68C731.791 255.145 729.393 247.294 730.846 242.485C733.271 236.675 740.094 233.346 744.602 229.003C750.658 224.125 759.371 216.658 766.126 217.412C767.592 217.891 768.551 219.275 769.319 220.618C771.374 224.344 774.251 231.113 776.429 235.141C780.005 242.389 785.006 236.21 787.212 242.06C790.185 251.596 792.583 263.53 795.46 272.381C798.57 279.423 803.777 286.726 808.819 292.165C818.985 302.961 814.08 287.041 811.915 281.944C809.737 277.272 805.051 275.093 802.831 270.901C800.982 267.366 801.269 263.201 801.228 259.296C801.598 257.186 800.735 253.24 802.283 252.199C803.01 251.87 804.284 252.939 806.079 254.788C808.202 256.98 811.038 260.118 813.258 262.447C815.176 264.311 816.848 266.462 819.56 266.517C822.602 266.421 827.151 262.557 829.576 259.652C833.769 254.09 832.481 245.814 828.644 240.32C826.055 236.662 820.972 232.866 818.601 229.195C815.313 223.372 821.506 219.385 826.808 217.727C833.234 216.247 840.646 215.754 847.25 214.63C854.772 214.206 856.005 207.547 858.732 201.929C860.39 197.408 863.774 193.01 862.938 188.311C860.239 181.501 853.197 174.829 849.689 168.293C847.579 164.977 849.703 162.224 849.552 158.976C849.347 158.1 848.744 157.36 847.99 156.812C844.538 154.208 832.864 153.537 839.167 147.454C843.209 143.535 847.292 149.098 851.868 149.687C862.198 149.591 864.349 159.072 870.227 165.608C873.42 169.622 881.133 166.882 878.955 162.045C878.078 160.251 876.708 158.881 875.255 157.387C873.228 155.263 870.46 152.811 868.967 150.509C865.541 145.481 868.583 137.548 873.515 134.835C879.777 132.766 879.996 126.93 881.476 120.613C882.846 115.462 883.572 110.009 879.969 105.583C876.393 101.089 873.241 93.2521 867.555 90.7996C863.185 89.4021 855.896 91.1147 854.211 85.4288C852.279 79.6332 854.128 71.9058 860.91 72.6868C868.213 72.8512 881.572 73.4814 888.888 73.5637C894.04 73.7418 898.273 70.4672 902.562 67.9873C910.947 62.8768 904.781 75.8243 905.398 79.4277C905.028 83.7162 910.276 87.9635 913.797 91.5395C916.921 94.5401 920.442 98.2942 923.401 101.089C927.333 105.2 927.402 102.158 927.196 98.1982C926.772 92.3068 927.087 84.7575 924.031 80.058C916.167 69.5903 918.921 70.2891 929.841 68.7408C938.13 67.4529 946.542 62.3561 954.037 58.1362C958.229 54.9438 957.956 51.82 955.16 49.6141H955.229Z M933.842 308.181C932.581 307.674 931.417 307.222 930.101 307.195C926.964 307.154 924.046 310.497 920.894 308.62C919.086 307.647 917.949 305.866 916.113 304.825L915.893 304.701C913.057 303.03 908.591 302.961 906.549 303.756C903.179 305.14 910.18 312.127 911.29 314.018C915.428 319.91 924.018 321.252 929.855 325.226C932.526 327.075 932.8 329.911 934.472 332.35C935.911 334.337 938.623 335.638 941.542 336.241L943.46 312.223C940.131 310.853 936.87 309.51 933.828 308.181H933.842Z" fill="#A1C9E5" stroke="white" stroke-width="1.37011" stroke-linejoin="round"/>
<path id="europe" d="M408.349 49.8472C406.499 50.6829 404.554 52.7381 402.964 54.1493C402.389 54.711 401.156 55.8209 402.499 56.0538C405.444 56.2045 412.98 56.4374 416.926 55.8482C417.803 55.6701 418.68 55.4098 419.543 55.1495C421.735 54.2726 425.749 53.8205 425.448 52.1352C422.927 48.7922 418.748 49.4224 414.624 49.3265C412.35 49.3265 409.829 49.2306 408.541 49.7786L408.335 49.8608L408.349 49.8472Z M448.959 72.6182C451.137 74.3171 454.247 81.8664 456.357 85.3465C457.453 87.4154 458.508 89.3884 459.358 90.9777C460.317 93.074 461.838 94.8551 460.372 96.7458C457.042 99.7738 451.411 102.555 447.424 105.158C444.04 107.542 440.902 106.967 437.176 105.145C433.901 103.665 430.065 102.254 426.955 100.555C424.667 99.2257 425.735 98.1571 428.297 95.1839C429.887 93.3617 431.449 91.5531 433.093 89.6761C436.778 85.4424 440.848 80.743 444.273 76.8107C446.671 74.1116 447.917 72.3578 448.863 72.5908L448.945 72.6182H448.959Z M488.418 7.04471C490.665 8.93546 495.488 11.5113 498.831 13.6349C499.831 14.1967 500.831 14.7584 501.941 14.8955C504.928 14.9503 507.312 13.2924 510.395 12.2648C513.464 10.9632 516.985 9.85344 519.794 8.41482C520.109 8.1271 519.615 8.11342 519.3 8.05862C517.19 7.8805 510.134 7.63386 503.325 7.30503L493.734 6.8803C490.391 6.77069 488.158 6.49665 488.404 6.98989L488.432 7.04471H488.418Z M573.858 118.106L574.023 117.147L578.133 110.296L564.432 106.748L543.88 84.2643H539.263L534.125 69.9192L543.894 59.6023L534.125 40.8591L537.468 34.9266C532.303 33.0906 529.33 32.7344 524.233 33.9264C519.109 34.9677 510.176 36.8036 504.599 37.9819C502.051 38.5437 499.461 39.1602 497.612 41.0647C494.501 44.1337 493.214 50.6281 489.213 53.93C484.664 58.4514 474.662 57.9856 473.991 65.6445C473.895 68.741 474.238 72.9061 476.854 74.9475C479.375 76.7013 483.335 73.8926 486.692 75.0434C490.939 76.1258 491.556 82.3598 495.625 83.3737C499.859 83.223 503.818 78.455 506.915 75.7011C514.053 66.5214 502.133 63.4249 517.67 54.2041C519.424 52.9847 526.713 49.1346 524.712 53.8341C523.603 56.3688 520.287 59.5338 519.602 62.7262C517.903 68.2751 525.48 72.2347 524.233 77.4549C523.466 79.3456 520.232 80.9212 518.232 83.1134C516.231 85.6481 514.176 88.1006 510.71 88.5391C501.475 90.4983 486.692 92.2247 477.594 94.5813C471.045 97.3078 464.633 102.158 458.111 105.83C454.672 108.2 450.685 109.584 448.178 112.749C447.013 114.941 449.644 116.75 451.206 120.38C453.357 124.313 452.836 129.821 447.561 130.629C442.602 131.889 434.929 128.231 431.613 133.369C429.216 140.11 425.462 153.291 433.682 156.62C440.588 158.771 451.754 156.154 455.398 149.221C459.564 143.672 462.455 133.369 469.415 131.355C475.868 130.232 483.705 127.943 489.72 131.355C492.871 133.314 495.406 136.219 498.516 138.987C502.202 141.891 504.202 145.467 507.038 148.728C508.929 150.55 513.505 146.481 513.272 144.234C511.998 140.672 507.394 138.987 503.969 135.287C502.558 133.89 501.256 132.273 500.187 130.643C498.434 127.916 497.625 125.587 498.927 125.806C501.941 126.943 504.969 129.862 507.805 131.725C512.875 135.26 517.149 138.685 519.972 143.933C524.151 150.989 528.069 160.415 534.687 150.167C535.564 148.947 537.263 146.056 538.564 146.645C538.893 146.906 539.153 147.248 539.386 147.632L543.908 136.315L554.184 120.559L573.886 118.092L573.858 118.106Z" fill="#6287A3" stroke="white" stroke-width="1.37011" stroke-linejoin="round"/>
</svg>
