<svg width="298" height="454" viewBox="0 0 298 454" fill="none" xmlns="http://www.w3.org/2000/svg">
    <path id="KR50000" d="M43.5914 432.443C43.5914 432.443 32.5185 440.352 37.2641 446.68C42.0096 453.007 43.5914 454.589 48.337 451.425C53.0825 448.261 57.828 448.261 64.1554 448.261C70.4827 448.261 83.1375 446.68 89.4648 438.77C95.7922 430.861 92.6285 421.37 84.7193 421.37C76.8101 421.37 59.4099 419.788 43.5914 432.443Z" fill="#E4ECF2" stroke="#A1BDD3" stroke-width="0.790921" stroke-miterlimit="10"/>
    <path id="KR41000" d="M91.0467 155.621C91.0467 154.039 103.701 144.548 108.447 142.966C113.192 141.384 114.774 139.802 114.774 136.639C114.774 133.475 116.356 131.893 119.52 131.893C120.864 131.893 121.908 131.925 122.715 130.738C123.269 129.916 123.538 128.967 123.68 128.002C123.775 127.337 123.617 126.689 123.743 126.024C124.313 122.877 125.721 119.966 126.338 116.834C127.002 113.465 127.445 110.032 127.445 106.584C127.445 101.838 127.445 98.6744 130.735 95.7322C134.025 92.7899 124.281 90.7652 116.372 89.1833C108.463 87.6015 110.045 82.856 110.045 79.6923C110.045 76.5286 106.881 70.2012 113.208 63.8739C119.536 57.5465 106.881 55.9647 105.299 51.2191C103.717 46.4736 100.554 43.3099 97.3898 43.3099C94.2262 43.3099 91.0625 41.7281 91.0625 38.5644C91.0625 35.4007 91.0625 38.5644 87.8988 40.1462C84.7351 41.7281 83.1533 38.5644 81.5714 33.8189C80.9387 31.9365 79.5625 30.0383 78.123 28.4564C72.7606 31.3037 68.9167 34.1352 68.9167 36.9825C68.9167 40.1462 68.9167 44.8918 65.753 44.8918C62.5893 44.8918 61.0075 48.0554 59.4256 49.6373C57.8438 51.2191 48.3527 57.5465 46.7709 60.7102C45.1891 63.8739 45.1891 68.6194 45.1891 71.7831C45.1891 74.9468 45.1891 74.9468 42.0254 74.9468C38.8617 74.9468 35.698 73.3649 34.1162 71.7831C32.5343 70.2012 27.7888 68.6194 26.207 70.2012C24.6251 71.7831 23.0433 73.3649 19.8796 71.7831C16.7159 70.2012 14.0268 73.3649 13.7895 74.9468C13.5522 76.5286 16.7159 78.1104 18.2977 78.1104C19.8796 78.1104 16.7159 82.856 19.8796 84.4378C23.0433 86.0196 23.0433 90.7652 26.207 90.7652C29.3706 90.7652 35.698 89.1833 37.2798 89.1833C38.1182 89.1833 39.3679 90.0692 40.3803 91.3505C42.1836 90.5595 43.6072 89.2782 43.6072 87.4749C43.6072 84.2005 51.5164 87.5857 53.0983 92.3312C53.3672 93.1379 53.6835 93.7074 54.0316 94.1345C54.3479 91.2081 54.6643 88.5506 57.132 90.0217C61.0075 92.3312 64.6773 93.2012 64.4242 89.5946C64.2555 87.1902 65.2257 85.988 67.3348 85.988C70.4985 85.988 70.4985 81.2425 73.6622 81.2425C76.8259 81.2425 78.4077 81.2425 78.4077 84.4062C78.4077 87.5699 81.5714 87.5699 79.9896 90.7335C78.4077 93.8972 81.5714 90.7335 83.1533 92.3154C84.7351 93.8972 81.5714 95.4791 81.5714 97.0609C81.5714 98.6428 87.2028 100.683 83.5962 102.028C79.9896 103.388 75.244 109.716 73.6622 106.552C72.0804 103.388 70.4985 101.806 68.9167 103.388C67.3348 104.97 64.1712 106.552 62.5893 103.388C61.0075 100.225 56.9421 103.388 57.3851 98.6428C57.7647 94.704 55.645 96.1909 54.0157 94.1187C53.8417 95.7638 53.6519 97.5038 53.0824 98.6428C51.5006 101.806 56.2461 101.806 54.6643 104.97C53.6361 107.027 49.286 111.076 46.3438 113.67C47.4195 113.67 48.3369 113.623 48.3369 114.461C48.3369 116.043 56.2461 119.207 51.5006 120.789C46.7551 122.37 39.099 117.625 37.3906 120.789C35.6822 123.952 37.264 127.116 40.4277 125.534C43.5914 123.952 46.7551 128.698 46.7551 130.28C46.7551 131.861 49.9188 133.443 51.5006 136.607C53.0824 139.771 56.2461 146.098 59.4098 147.68C61.3713 148.661 63.3486 150.875 63.7915 152.789C68.6003 152.394 74.4531 150.037 76.8101 147.68C79.9738 144.516 91.0467 157.171 91.0467 155.589V155.621Z" fill="#E4ECF2" stroke="#A1BDD3" stroke-width="0.790921" stroke-miterlimit="10"/>
    <path id="KR51000" d="M87.8829 40.1463C91.0466 38.5645 91.0466 35.4008 91.0466 38.5645C91.0466 41.7282 94.2103 43.31 97.374 43.31C100.538 43.31 103.701 46.4737 105.283 51.2192C106.865 55.9647 119.52 57.5466 113.192 63.8739C106.865 70.2013 110.029 76.5287 110.029 79.6924C110.029 82.856 108.447 87.6016 116.356 89.1834C124.265 90.7653 134.025 92.79 130.719 95.7322C127.429 98.6745 127.429 101.838 127.429 106.584C127.429 111.329 125.847 119.238 124.265 125.566C124.218 125.787 124.17 125.977 124.107 126.183C125.531 129.362 127.904 133.238 130.719 132.13C135.338 130.311 140.1 130.311 140.084 125.566C140.068 120.82 140.084 120.82 143.232 122.402C146.379 123.984 147.977 127.148 151.141 125.566C154.304 123.984 155.886 120.82 162.214 122.402C168.541 123.984 169.648 125.107 167.513 126.926C165.377 128.729 163.732 129.584 168.509 130.738C173.287 131.893 177.384 134.266 182.461 135.452C183.679 135.737 184.834 136.243 185.973 136.749C188.947 138.094 195.353 143.045 198.596 139.802C201.76 136.639 203.342 136.639 206.505 136.639C209.669 136.639 227.069 133.475 228.651 135.057C230.233 136.639 234.978 141.384 236.56 136.639C237.525 133.744 240.831 129.694 243.631 126.958C243.394 126.483 243.157 126.025 242.888 125.566C236.56 114.493 215.996 79.6924 212.833 74.9468C209.669 70.2013 182.778 33.8189 178.032 18.0005C178.032 18.0005 171.705 3.76395 170.123 2.18211C168.541 0.600267 163.764 0.600267 162.989 2.18211C162.214 3.76395 165.346 8.85748 162.989 11.0562C160.632 13.255 157.468 22.7461 151.141 24.3279C144.813 25.9097 136.778 22.7461 133.677 24.3279C130.577 25.9097 127.413 25.9097 127.413 24.3279C127.413 22.7461 116.34 21.1642 114.758 22.7461C113.177 24.3279 107.735 26.7007 103.338 25.5143C98.94 24.3279 86.2853 24.3279 79.9579 27.4916C79.3093 27.8079 78.6924 28.1401 78.0913 28.4565C79.5308 30.0542 80.907 31.9366 81.5397 33.8189C83.1216 38.5645 84.7034 41.7282 87.8671 40.1463H87.8829Z" fill="#E4ECF2" stroke="#A1BDD3" stroke-width="0.790921" stroke-miterlimit="10"/>
    <path id="KR28000" d="M54.6641 105.002C56.246 101.838 51.5004 101.838 53.0823 98.6746C53.6517 97.5356 53.8257 95.7956 54.0156 94.1505C53.6834 93.7234 53.367 93.1539 53.0823 92.3472C51.5004 87.6017 43.5912 84.2007 43.5912 87.4909C43.5912 89.2784 42.1676 90.5597 40.3643 91.3665C41.2817 92.537 42.0094 94.024 42.0094 95.5267C42.0094 98.6904 42.0094 111.345 43.5912 112.927C44.3347 113.67 45.3945 113.718 46.3436 113.718C49.27 111.124 53.6359 107.074 54.6641 105.018V105.002Z" fill="#E4ECF2" stroke="#A1BDD3" stroke-width="0.790921" stroke-miterlimit="10"/>
    <path id="KR11000" d="M57.3691 98.6744C56.9104 103.42 60.9916 100.256 62.5734 103.42C64.1552 106.584 67.3189 105.002 68.9008 103.42C70.4826 101.838 72.0644 103.42 73.6463 106.584C75.2281 109.747 79.9737 103.42 83.5803 102.06C87.1869 100.699 81.5555 98.6744 81.5555 97.0926C81.5555 95.5107 84.7192 93.9289 83.1373 92.3471C81.5555 90.7652 78.3918 93.9289 79.9737 90.7652C81.5555 87.6015 78.3918 87.6015 78.3918 84.4379C78.3918 81.2742 76.81 81.2742 73.6463 81.2742C70.4826 81.2742 70.4826 86.0197 67.3189 86.0197C64.1552 86.0197 64.1552 86.0197 64.4083 89.6263C64.6614 93.2329 60.9916 92.3471 57.116 90.0534C54.6325 88.5823 54.332 91.2398 54.0156 94.1662C55.6449 96.2384 57.7646 94.7515 57.385 98.6903L57.3691 98.6744Z" fill="#E4ECF2" stroke="#A1BDD3" stroke-width="0.790921" stroke-miterlimit="10"/>
    <path id="KR36000" d="M94.2101 198.33C95.7603 197.555 96.2349 196.163 96.6936 194.613C96.8993 193.917 98.1647 191.212 98.3546 190.912C98.7817 190.39 99.3195 189.883 99.6833 189.314C100.11 188.65 100.411 187.875 99.9839 187.131C99.1455 185.676 96.8676 185.17 95.3807 184.806C91.8216 183.952 91.0306 179.333 92.6125 177.751C93.5616 176.802 92.2328 174.128 91.0148 172.151C89.3697 172.926 79.9736 165.128 81.5396 174.587C83.1214 184.078 86.4117 181.199 84.7665 185.802C83.1214 190.405 82.7892 193.965 87.6929 196.923C88.9742 197.698 89.9866 198.362 90.7617 198.995C91.7899 199.042 92.9921 198.9 94.1943 198.299L94.2101 198.33Z" fill="#E4ECF2" stroke="#A1BDD3" stroke-width="0.790921" stroke-miterlimit="10"/>
    <path id="KR30000" d="M110.029 203.076C113.192 196.749 108.447 199.912 107.941 196.939C107.434 193.965 105.283 195.167 102.989 196.939C101.439 198.141 99.4144 194.012 98.2755 191.196C96.0451 194.091 97.1208 196.859 94.2102 198.315C93.008 198.916 91.8058 199.058 90.7776 199.011C92.9922 200.846 93.2453 202.538 91.6318 206.129C89.4647 210.985 93.4193 216.016 95.3966 217.455C97.3739 218.894 98.497 209.103 101.898 214.797C104.445 219.068 105.979 216.553 107.925 215.035C107.371 211.934 107.529 208.106 110.044 203.076H110.029Z" fill="#E4ECF2" stroke="#A1BDD3" stroke-width="0.790921" stroke-miterlimit="10"/>
    <path id="KR43000" d="M168.509 130.739C163.732 129.584 165.377 128.73 167.513 126.926C169.648 125.123 168.541 123.984 162.213 122.402C155.886 120.82 154.304 123.984 151.141 125.566C147.977 127.148 146.395 123.984 143.231 122.402C140.068 120.82 140.068 120.82 140.083 125.566C140.099 130.311 135.322 130.311 130.719 132.131C127.903 133.238 125.53 129.362 124.107 126.183C122.683 131.877 122.572 131.893 119.519 131.893C116.467 131.893 114.774 133.475 114.774 136.639C114.774 139.803 113.192 141.384 108.447 142.966C103.701 144.548 91.0463 154.039 91.0463 155.621L98.9555 163.53C100.537 165.112 103.701 168.276 100.537 168.276C97.3737 168.276 92.6282 171.313 91.0305 172.167C92.2485 174.144 93.5931 176.802 92.6282 177.767C91.0463 179.349 91.8373 183.952 95.3964 184.822C98.9555 185.692 102.119 187.258 98.9555 190.421C98.6866 190.69 98.4652 190.943 98.2754 191.212C99.4143 194.012 101.439 198.157 102.989 196.954C105.283 195.183 107.434 193.981 107.94 196.954C108.447 199.928 113.192 196.765 110.028 203.092C107.513 208.122 107.355 211.95 107.909 215.051C108.557 214.545 109.238 214.165 110.028 214.165C113.192 214.165 114.774 217.329 114.774 223.656C114.774 225.317 114.995 226.962 115.233 228.465C116.419 230.015 117.969 231.565 119.519 231.565C122.683 231.565 124.265 229.983 125.847 231.565C127.429 233.147 132.174 236.311 135.338 234.729C135.812 234.492 136.398 234.254 136.524 233.89C136.477 233.875 136.493 234.08 136.524 234.049C137.695 232.846 139.451 232.372 140.716 231.28C142.029 230.141 143.263 228.655 143.263 226.82C143.263 223.656 141.681 218.91 144.845 218.91C148.008 218.91 149.274 218.341 148.641 215.462C148.008 212.583 144.845 211.001 143.263 212.583C141.681 214.165 139.119 209.752 136.445 211.95C133.772 214.149 130.608 212.963 132.981 209.609C135.354 206.256 135.354 203.092 135.354 199.928C135.354 196.765 134.373 192.494 136.445 191.465C138.517 190.437 136.936 188.855 135.354 187.274C133.772 185.692 127.445 181.626 131.399 179.697C135.354 177.783 135.797 178.447 137.948 179.697C140.099 180.946 140.099 179.364 140.099 177.783C140.099 176.201 136.936 171.455 141.681 171.455C146.427 171.455 151.172 172.547 148.799 168.845C146.427 165.128 144.845 163.546 149.59 161.964C154.336 160.382 159.081 163.546 160.663 160.382C162.245 157.219 163.827 157.219 165.409 158.8C166.991 160.382 171.736 163.546 174.9 161.964C178.063 160.382 177.605 157.219 177.051 155.637C176.497 154.055 174.9 149.309 179.645 147.728C183.584 146.415 187.903 142.049 189.848 138.616C187.27 137.382 184.628 135.974 182.493 135.468C177.431 134.282 173.318 131.909 168.541 130.754L168.509 130.739Z" fill="#E4ECF2" stroke="#A1BDD3" stroke-width="0.790921" stroke-miterlimit="10"/>
    <path id="KR44000" d="M60.2324 228.117C62.6368 223.102 72.0646 218.894 75.2282 226.804C78.3919 234.713 83.1375 228.385 86.3011 228.385C89.4648 228.385 95.7922 222.058 97.374 229.967C98.9559 237.877 102.12 233.131 105.283 237.877C108.447 242.622 108.447 233.131 113.192 234.713C117.131 236.026 115.628 229.793 115.059 227.958C115.106 228.069 115.138 228.18 115.186 228.291C115.186 226.74 114.774 225.206 114.774 223.64C114.774 217.313 113.192 214.149 110.029 214.149C109.238 214.149 107.941 214.544 107.957 215.525C107.941 215.383 107.909 215.225 107.893 215.082C107.957 215.478 105.489 217.028 105.014 217.107C103.527 217.36 102.547 215.889 101.898 214.782C98.513 209.103 97.374 218.879 95.3967 217.439C93.4194 216 89.4648 210.969 91.6319 206.113C92.2647 204.674 92.9923 202.934 92.5336 201.352C92.1698 200.134 91.1258 199.881 90.2557 199.106C89.5123 198.441 88.5632 197.445 87.709 196.923C82.7895 193.965 83.1375 190.405 84.7826 185.802C86.4277 181.199 83.1375 184.078 81.5556 174.587C81.0811 171.74 81.6663 169.288 84.9566 170.079C86.3011 170.411 87.4084 171.297 88.6897 171.771C91.1099 172.657 92.7867 171.281 94.7798 170.19C96.5831 169.209 98.4339 168.26 100.538 168.26C103.701 168.26 100.538 165.096 98.9559 163.514L91.0467 155.605C91.0467 157.187 79.9738 144.532 76.8101 147.696C74.4531 150.053 68.5845 152.41 63.7915 152.805C64.0604 153.96 63.7757 155.02 62.5735 155.605C59.4098 157.187 56.2461 154.023 54.6643 150.859C53.0825 147.696 51.5006 144.532 48.3369 146.114C45.1732 147.696 42.0096 144.532 40.4277 142.95C38.8459 141.368 37.264 139.787 34.1004 141.368C30.9367 142.95 18.2819 142.95 23.0275 147.696C27.773 152.441 26.1911 155.605 24.6093 157.187C23.0275 158.769 19.8638 160.35 19.8638 154.023C19.8638 147.696 18.2819 146.114 16.7001 150.859C15.1183 155.605 13.5364 160.35 10.3727 161.932C7.20904 163.514 5.6272 165.096 8.79088 166.678C11.9546 168.26 15.1183 171.423 11.9546 171.423C8.79088 171.423 7.20904 176.169 10.3727 174.587C13.5364 173.005 15.1183 169.842 16.7001 173.005C18.2819 176.169 21.4456 182.496 21.4456 187.242C21.4456 191.987 19.8638 196.733 23.0275 198.315C26.1911 199.897 29.3548 201.478 27.773 195.151C26.1911 188.824 21.4456 177.751 24.6093 179.333C27.773 180.914 27.773 180.914 29.3548 177.751C30.9367 174.587 32.5185 174.587 32.5185 179.333C32.5185 184.078 32.5185 199.897 34.1004 201.478C35.6822 203.06 40.4277 207.806 37.264 207.806C34.1004 207.806 35.6822 210.969 37.264 214.133C38.8459 217.297 34.1004 222.042 38.8459 225.206C43.5914 228.37 42.0096 233.115 45.1732 234.697C46.7393 235.488 49.4759 235.883 51.2633 236.263C58.002 235.219 58.4924 231.723 60.2324 228.085V228.117Z" fill="#E4ECF2" stroke="#A1BDD3" stroke-width="0.790921" stroke-miterlimit="10"/>
    <path id="KR47000" d="M258.722 229.967C255.558 233.131 250.812 237.877 249.231 231.549C247.649 225.222 247.649 220.476 246.067 215.731C244.485 210.985 246.067 207.822 247.649 201.494C249.231 195.167 249.231 185.676 249.231 180.93C249.231 176.185 249.231 174.603 250.812 173.021C252.394 171.439 255.558 166.694 252.394 158.784C249.357 151.207 249.215 137.809 243.647 126.958C240.847 129.694 237.541 133.744 236.576 136.639C234.994 141.384 230.248 136.639 228.667 135.057C227.085 133.475 209.685 136.639 206.521 136.639C203.357 136.639 201.775 136.639 198.612 139.802C196.777 141.637 193.36 140.277 189.832 138.6C187.887 142.033 183.584 146.399 179.63 147.712C174.884 149.293 176.466 154.039 177.035 155.621C177.605 157.203 178.048 160.366 174.884 161.948C171.72 163.53 166.975 160.366 165.393 158.784C163.811 157.203 162.229 157.203 160.647 160.366C159.066 163.53 154.32 160.366 149.575 161.948C144.829 163.53 146.411 165.112 148.784 168.829C151.156 172.546 146.411 171.439 141.665 171.439C136.92 171.439 140.083 176.185 140.083 177.767C140.083 179.348 140.083 180.93 137.932 179.681C135.781 178.431 135.338 177.767 131.383 179.681C127.429 181.595 133.756 185.676 135.338 187.258C136.92 188.839 138.502 190.421 136.429 191.449C134.357 192.478 135.338 196.749 135.338 199.912C135.338 203.076 135.338 206.24 132.965 209.593C130.592 212.947 133.756 214.149 136.429 211.934C139.103 209.72 141.665 214.149 143.247 212.567C144.829 210.985 147.993 212.567 148.625 215.446C149.258 218.325 147.993 218.894 144.829 218.894C141.665 218.894 143.247 223.64 143.247 226.804C143.247 229.588 139.561 232.372 136.524 234.08C137.505 236.611 138.597 240.74 137.6 245.121C137.885 245.264 138.185 245.469 138.502 245.786C141.665 248.949 144.829 250.531 147.993 250.531C151.156 250.531 154.32 252.113 155.902 255.277C157.484 258.44 162.229 261.604 160.647 264.768C159.066 267.932 160.647 267.932 162.229 267.932C163.811 267.932 170.138 267.932 171.72 269.513C173.302 271.095 174.884 272.677 178.048 271.095C179.313 270.462 180.579 269.83 181.638 269.197C179.44 269.656 177.288 270.352 176.466 269.513C174.884 267.932 173.302 267.932 171.72 266.35C170.138 264.768 173.302 263.186 174.884 263.186C176.466 263.186 178.048 263.186 176.466 261.604C174.884 260.022 174.884 258.44 174.884 256.859C174.884 255.277 176.466 253.695 179.519 252.904C182.572 252.113 178.048 250.531 174.884 250.531C171.72 250.531 173.302 247.368 176.466 242.622C179.63 237.877 179.63 244.204 181.211 245.786C182.793 247.368 184.375 242.622 184.375 239.458C184.375 236.295 187.539 237.877 189.121 237.877C190.702 237.877 192.284 234.713 195.448 234.713C198.612 234.713 200.193 239.458 201.048 244.9C201.902 250.341 200.193 248.949 198.612 252.113C197.03 255.277 198.612 256.859 197.03 260.022C195.448 263.186 192.284 261.604 192.205 260.592C192.126 259.579 189.121 258.44 186.748 260.592C184.375 262.743 184.375 264.768 184.375 266.35C184.375 267.299 183.236 268.248 181.638 269.197C183.616 268.786 185.625 268.596 186.748 269.909C189.121 272.693 192.284 274.275 195.448 274.275C198.612 274.275 206.521 275.857 208.103 274.275C209.685 272.693 214.43 267.947 217.594 269.529C218.701 270.083 219.603 270.636 220.251 271.19C221.311 269.798 222.925 267.947 223.921 267.947C225.503 267.947 227.085 266.366 225.503 264.784C223.921 263.202 225.503 258.456 230.248 260.038C234.994 261.62 241.1 259.864 240.42 263.898C239.739 267.947 242.903 268.422 244.485 267.394C246.067 266.365 246.067 263.202 249.231 264.784C250.812 265.575 252.774 266.365 254.356 266.951C254.751 262.569 255.526 256.969 257.14 250.547C260.303 237.892 261.885 226.819 258.722 229.983V229.967Z M294.313 86.8107C294.313 86.8107 281.659 91.5562 287.986 96.3017C294.313 101.047 297.477 97.8836 297.477 94.7199C297.477 91.5562 297.477 86.8107 294.313 86.8107Z" fill="#E4ECF2" stroke="#A1BDD3" stroke-width="0.790921" stroke-miterlimit="10"/>
    <path id="KR27000" d="M184.375 266.35C184.375 264.768 184.375 262.743 186.748 260.592C189.121 258.441 192.142 259.579 192.205 260.592C192.284 261.604 195.448 263.186 197.03 260.022C198.612 256.859 197.03 255.277 198.612 252.113C200.194 248.949 201.902 250.326 201.048 244.9C200.194 239.458 198.612 234.713 195.448 234.713C192.284 234.713 190.703 237.877 189.121 237.877C187.539 237.877 184.375 236.295 184.375 239.458C184.375 242.622 182.793 247.368 181.211 245.786C179.63 244.204 179.63 237.877 176.466 242.622C173.302 247.368 171.72 250.531 174.884 250.531C178.048 250.531 182.572 252.113 179.519 252.904C176.466 253.695 174.884 255.277 174.884 256.859C174.884 258.441 174.884 260.022 176.466 261.604C178.048 263.186 176.466 263.186 174.884 263.186C173.302 263.186 170.139 264.768 171.72 266.35C173.302 267.932 174.884 267.932 176.466 269.513C177.304 270.352 179.44 269.64 181.639 269.197C183.22 268.248 184.375 267.299 184.375 266.35Z" fill="#E4ECF2" stroke="#A1BDD3" stroke-width="0.790921" stroke-miterlimit="10"/>
    <path id="KR31000" d="M244.485 267.378C242.903 268.406 239.739 267.932 240.42 263.882C241.1 259.833 234.994 261.604 230.248 260.022C225.503 258.441 223.921 263.186 225.503 264.768C227.085 266.35 225.503 267.932 223.921 267.932C222.924 267.932 221.327 269.782 220.251 271.174C221.453 272.203 221.786 273.231 220.757 274.259C219.176 275.841 217.246 277.834 221.374 279.21C225.503 280.586 226.531 282.168 228.382 283.75C230.233 285.332 233.396 286.914 234.978 286.914C236.56 286.914 236.56 288.496 236.56 290.077C236.56 290.678 236.56 291.264 236.386 291.77C238.363 292.039 241.97 292.893 244.517 295.74C245.007 291.485 249.31 277.597 250.797 280.586C252.378 283.75 253.96 279.004 253.96 275.841C253.96 274.291 253.96 271.19 254.34 266.935C252.758 266.35 250.797 265.559 249.215 264.768C246.051 263.186 246.051 266.35 244.469 267.378H244.485Z" fill="#E4ECF2" stroke="#A1BDD3" stroke-width="0.790921" stroke-miterlimit="10"/>
    <path id="KR26000" d="M236.402 291.786C236.117 292.64 235.374 293.257 233.412 293.257C230.249 293.257 227.085 293.257 228.667 296.42C230.249 299.584 225.946 299.853 223.352 301.308C220.758 302.764 219.113 307.699 215.981 307.604C212.848 307.509 211.267 309.091 211.267 310.673C211.267 312.255 209.922 313.852 208.23 313.837C206.537 313.821 203.357 313.837 206.521 315.418C208.087 316.193 208.483 317.364 208.498 318.345C212.152 317.68 217.594 315.956 217.594 318.582C217.594 321.746 222.34 323.328 223.921 321.746C225.503 320.164 230.249 313.837 233.412 312.255C236.576 310.673 244.485 299.6 244.485 296.436C244.485 296.262 244.501 296.025 244.533 295.772C242.002 292.94 238.379 292.07 236.402 291.801V291.786Z" fill="#E4ECF2" stroke="#A1BDD3" stroke-width="0.790921" stroke-miterlimit="10"/>
    <path id="KR48000" d="M206.521 315.387C203.357 313.805 206.521 313.805 208.229 313.805C209.937 313.805 211.266 312.223 211.266 310.641C211.266 309.059 212.848 307.478 215.98 307.573C219.112 307.667 220.757 302.732 223.351 301.277C225.946 299.822 230.248 299.553 228.666 296.389C227.085 293.225 230.248 293.225 233.412 293.225C234.092 293.225 234.82 293.178 235.437 292.861C235.816 292.672 236.07 292.434 236.228 292.055C236.528 291.359 236.576 290.805 236.576 290.062C236.576 288.48 236.576 286.898 234.994 286.898C233.412 286.898 230.248 285.316 228.398 283.734C226.547 282.152 225.503 280.571 221.39 279.194C217.261 277.818 219.191 275.825 220.773 274.243C221.2 273.816 221.422 273.215 221.311 272.598C221.105 271.554 219.761 270.668 218.891 270.178C218.464 269.941 218.036 269.703 217.609 269.498C214.446 267.916 209.7 272.661 208.118 274.243C206.537 275.825 198.627 274.243 195.464 274.243C192.3 274.243 189.136 272.661 186.763 269.877C185.64 268.564 183.631 268.77 181.654 269.165C180.594 269.798 179.329 270.431 178.063 271.064C174.9 272.645 173.318 271.064 171.736 269.482C170.154 267.9 163.827 267.9 162.245 267.9C160.663 267.9 159.081 267.9 160.663 264.736C162.245 261.573 157.499 258.409 155.918 255.245C154.336 252.082 151.172 250.5 148.008 250.5C146.142 250.5 144.323 249.93 142.709 249.013C141.744 248.475 140.795 247.874 140.004 247.115C137.726 244.963 136.777 244.046 134.484 246.165C133.424 247.146 132.222 248.633 130.608 248.333C127.429 247.747 124.297 253.663 122.857 255.119C121.418 256.59 119.551 263.139 117.906 264.626C116.261 266.097 117.969 272.645 114.805 275.809C111.642 278.973 119.551 282.137 117.906 283.718C116.261 285.3 117.969 286.882 121.133 286.882C124.297 286.882 122.715 290.046 119.551 291.628C117.447 292.687 114.647 297.923 113.002 301.324C113.904 303.08 114.869 304.915 115.834 306.196C117.969 309.028 124.297 316.937 125.878 320.101C127.35 323.027 132.838 325.954 128.662 331.395C130.292 331.189 131.763 331.395 132.997 332.091C136.951 334.337 136.951 337.501 135.369 339.083C133.788 340.665 133.788 345.41 135.369 348.574C136.951 351.738 136.951 353.319 140.115 350.156C143.279 346.992 146.442 356.483 148.024 351.738C149.606 346.992 151.188 343.828 146.442 343.828C141.697 343.828 136.951 342.247 138.533 337.501C140.115 332.755 140.115 329.592 143.279 329.592C146.442 329.592 149.606 320.101 151.188 326.428C152.77 332.755 152.77 332.755 155.933 334.337C159.097 335.919 174.915 331.174 171.752 334.337C168.588 337.501 171.752 337.501 174.915 337.501C178.079 337.501 176.497 334.337 179.661 329.592C182.825 324.846 182.825 318.471 186.779 320.069C190.734 321.683 190.734 320.101 190.734 316.937C190.734 313.773 189.152 312.192 193.898 315.355C198.643 318.519 203.389 318.519 206.552 318.519C207.09 318.519 207.77 318.424 208.53 318.282C208.53 317.301 208.118 316.13 206.552 315.355L206.521 315.387Z M200.193 331.205C200.193 331.205 200.193 321.714 197.03 324.878C193.866 328.042 189.121 332.787 190.702 334.369C192.284 335.951 187.539 334.701 186.748 335.318C185.957 335.935 181.211 339.115 182.793 342.278C184.375 345.442 185.957 345.442 187.539 343.86C189.121 342.278 193.55 342.769 191.335 344.904C189.121 347.04 190.291 353.557 191.335 353.952C193.866 354.933 197.03 351.769 197.03 348.606C197.03 345.442 197.03 343.86 198.612 343.86C200.193 343.86 202.108 343.86 201.949 339.115C201.791 334.369 200.193 331.205 200.193 331.205Z" fill="#E4ECF2" stroke="#A1BDD3" stroke-width="0.790921" stroke-miterlimit="10"/>
    <path id="KR46000" d="M125.847 320.132C124.265 316.969 117.954 309.075 115.818 306.244C114.489 304.488 113.398 302.337 112.401 300.359C111.753 299.046 111.073 297.449 110.029 296.405C108.447 294.823 106.865 293.241 103.701 296.405C100.537 299.568 97.3738 299.568 92.5017 299.995C87.6296 300.423 83.1372 299.568 78.1228 299.98C73.1083 300.391 75.228 294.823 75.228 293.241C75.228 291.659 75.228 288.496 73.6462 286.914C72.0643 285.332 70.4825 285.332 68.9006 288.496C67.3188 291.659 65.737 290.077 64.1551 288.496C62.5733 286.914 60.9914 283.75 57.8277 283.75C54.6641 283.75 54.6641 285.332 51.5004 290.077C48.3367 294.823 46.7549 297.987 45.173 297.987C43.5912 297.987 40.4275 297.987 38.8456 299.568C37.2638 301.15 32.5183 297.987 32.5183 293.241C32.5183 290.489 30.3828 289.334 28.5953 288.844C27.2349 292.925 25.6847 300.059 23.0272 302.732C19.8635 305.896 19.8635 309.059 21.4454 310.641C23.0272 312.223 27.7727 313.805 27.7727 316.969C27.7727 320.132 27.7727 323.296 24.6091 323.296C21.4454 323.296 21.4454 323.296 21.4454 326.46C21.4454 329.623 15.4502 333.831 18.2817 335.951C21.0657 338.039 24.6091 335.951 23.0272 347.024C22.5843 350.172 16.0038 348.416 15.118 350.187C13.5362 353.351 11.9543 361.26 11.9543 364.424C11.9543 367.588 15.118 369.169 10.3725 372.333C5.62696 375.497 -2.28225 380.242 2.46328 383.406C7.2088 386.57 11.9543 389.733 16.6999 384.988C21.4454 380.242 27.7727 375.497 24.6091 372.333C21.4454 369.169 23.0272 366.006 26.1909 367.588C29.3546 369.169 30.9364 372.333 30.9364 375.497C30.9364 378.66 34.1001 380.242 34.1001 383.406C34.1001 386.57 32.5183 392.897 35.682 392.897C38.8456 392.897 40.4275 392.897 40.4275 389.733C40.4275 386.57 43.5912 380.242 46.7549 378.66C49.9185 377.079 51.5004 377.079 51.5004 372.333C51.5004 367.588 53.0822 361.26 54.6641 366.006C56.2459 370.751 54.6641 377.079 59.4096 378.66C64.1551 380.242 70.4825 377.079 68.9006 372.333C67.3188 367.588 72.0643 359.678 75.228 358.097C78.3917 356.515 83.1372 354.933 84.7191 353.351C86.3009 351.769 91.0464 348.605 92.6283 350.187C94.2101 351.769 98.9556 353.351 95.792 356.515C92.6283 359.678 89.4646 356.515 87.8827 361.26C86.3009 366.006 76.8099 370.751 83.1372 372.333C89.4646 373.915 92.6283 375.497 92.6283 377.079C92.6283 378.66 98.9556 378.66 100.537 375.497C102.119 372.333 98.9556 366.006 102.119 366.006C105.283 366.006 110.029 361.26 105.283 358.097C100.537 354.933 98.9556 350.187 100.537 347.024C102.119 343.86 108.447 339.114 110.029 342.278C111.61 345.442 116.356 350.187 114.774 353.351C113.192 356.515 114.774 361.26 116.356 361.26C117.938 361.26 119.52 361.26 119.52 356.515C119.52 351.769 121.101 348.605 122.683 350.187C124.265 351.769 129.011 351.769 129.011 345.442C129.011 339.114 127.429 340.696 124.265 340.696C121.101 340.696 110.029 342.278 116.356 337.533C120.706 334.274 125.04 331.87 128.631 331.427C132.823 326.001 127.318 323.059 125.847 320.132ZM70.4825 320.132C68.9006 321.714 64.1551 320.132 59.4096 321.714C54.6641 323.296 53.0822 320.132 49.6813 319.183C46.2803 318.234 45.173 316.969 45.173 313.805C45.173 310.641 49.4123 309.566 49.6813 307.573C49.9185 305.896 54.0788 305.801 54.6641 307.478C55.5657 310.072 57.8277 307.478 60.9914 305.896C64.1551 304.314 67.3188 307.478 68.9006 310.641C70.4825 313.805 72.0643 318.551 70.4825 320.132Z" fill="#E4ECF2" stroke="#A1BDD3" stroke-width="0.790921" stroke-miterlimit="10"/>
    <path id="KR52000" d="M32.5184 293.241C32.5184 297.987 37.2639 301.15 38.8457 299.568C40.4276 297.987 43.5913 297.987 45.1731 297.987C46.755 297.987 48.3368 294.823 51.5005 290.077C54.6642 285.332 54.6642 283.75 57.8279 283.75C60.9915 283.75 62.5734 286.914 64.1552 288.495C65.7371 290.077 67.3189 291.659 68.9007 288.495C70.4826 285.332 72.0644 285.332 73.6463 286.914C75.2281 288.495 75.2281 291.659 75.2281 293.241C75.2281 294.823 73.0926 300.391 78.1229 299.98C83.1531 299.568 87.6297 300.438 92.5018 299.995C97.3739 299.568 100.538 299.568 103.701 296.405C106.865 293.241 108.447 294.823 110.029 296.405C110.883 297.259 111.895 299.268 112.971 301.356C114.616 297.955 117.416 292.703 119.52 291.659C122.683 290.077 124.265 286.914 121.102 286.914C117.938 286.914 116.245 285.332 117.875 283.75C119.504 282.168 111.61 279.004 114.774 275.841C117.938 272.677 116.245 266.144 117.875 264.657C119.52 263.186 121.386 256.621 122.826 255.15C124.265 253.679 127.413 247.779 130.577 248.364C133.424 248.886 135.006 243.84 137.584 245.121C138.581 240.74 137.489 236.611 136.509 234.08C136.097 234.317 135.702 234.523 135.322 234.713C132.159 236.295 127.413 233.131 125.831 231.549C124.249 229.967 122.668 231.549 119.504 231.549C117.938 231.549 116.388 230.015 115.217 228.449C115.881 232.72 116.688 235.868 113.176 234.713C108.431 233.131 108.431 242.622 105.267 237.877C102.104 233.131 98.9399 237.877 97.3581 229.967C95.7762 222.058 89.4489 228.385 86.2852 228.385C83.1215 228.385 78.376 234.713 75.2123 226.804C72.0486 218.894 62.6208 223.102 60.2164 228.117C58.4764 231.755 57.986 235.235 51.2474 236.295C53.0507 236.69 53.8732 237.086 51.4847 237.892C46.7391 239.474 32.5026 239.474 37.2481 242.638C41.9936 245.802 43.5755 248.965 46.7391 247.383C49.9028 245.802 59.3939 245.802 57.812 247.383C56.2302 248.965 53.0665 250.547 49.9028 250.547C46.7391 250.547 48.321 252.129 49.9028 253.711C51.4847 255.293 57.812 258.456 49.9028 256.874C41.9936 255.293 45.1573 258.456 43.5755 260.038C41.9936 261.62 29.3389 271.111 32.5026 272.693C35.6662 274.275 49.9028 274.275 43.5755 277.438C37.2481 280.602 30.9207 283.766 29.3389 286.929C29.0858 287.436 28.8327 288.1 28.5796 288.859C30.3671 289.35 32.5026 290.489 32.5026 293.257L32.5184 293.241Z" fill="#E4ECF2" stroke="#A1BDD3" stroke-width="0.790921" stroke-miterlimit="10"/>
    <path id="KR29000" d="M60.9915 305.896C57.8278 307.478 55.5658 310.072 54.6642 307.478C54.0789 305.801 49.9186 305.896 49.6813 307.572C49.4124 309.566 45.1731 310.641 45.1731 313.805C45.1731 316.969 46.2962 318.218 49.6813 319.183C53.0823 320.132 54.6642 323.296 59.4097 321.714C64.1552 320.132 68.9007 321.714 70.4826 320.132C72.0644 318.55 70.4826 313.805 68.9007 310.641C67.3189 307.478 64.1552 304.314 60.9915 305.896Z" fill="#E4ECF2" stroke="#A1BDD3" stroke-width="0.790921" stroke-miterlimit="10"/>
</svg>
