<svg width="476" height="373" viewBox="0 0 476 373" fill="none" xmlns="http://www.w3.org/2000/svg">
<path id="KR11350" d="M327.092 57.1853C328.697 60.395 328.697 78.0481 328.697 84.4675C328.697 90.8868 323.883 84.4675 320.673 81.2578C317.463 78.0481 319.068 89.282 317.463 94.0965C316.244 97.7715 313.146 99.569 311.75 100.227C315.714 105.025 319.196 108.973 320.865 110.145C321.299 110.45 321.716 110.787 322.117 111.14C322.92 111.846 323.69 112.6 324.428 113.387C324.99 113.98 325.552 114.574 326.113 115.168C327.221 116.339 328.312 117.495 329.403 118.666C331.104 120.48 332.838 122.47 334.924 123.866C335.437 124.203 336.063 124.588 336.721 124.588C339.482 124.588 342.242 122.229 344.986 122.582C346.912 119.645 352.834 118.137 354.31 117.286C355.851 116.388 362.399 114.975 366.411 116.58C370.423 118.185 373.632 116.58 378.447 116.58C380.742 116.58 383.39 115.12 385.54 113.611C385.3 113.114 385.54 112.071 386.471 110.161C389.681 103.742 392.89 102.137 392.89 97.3222C392.89 92.5077 392.89 76.4594 386.471 78.0642C380.052 79.669 370.423 84.4835 370.423 76.4594C370.423 68.4352 368.818 53.9917 372.028 52.3868C375.237 50.782 373.632 45.9675 373.632 42.7578C373.632 39.5482 364.003 31.524 368.818 29.9192C373.632 28.3143 375.237 28.3143 375.237 23.4998C375.237 18.6853 372.028 13.8708 368.818 17.0805C365.608 20.2902 362.399 20.2902 360.794 17.0805C359.189 13.8708 364.003 9.05634 352.77 10.6612C341.536 12.266 339.931 15.4757 336.721 15.4757C334.089 15.4757 328.264 17.6262 325.343 20.1618C325.279 26.212 322.278 39.2914 322.278 44.3627C322.278 50.782 325.487 53.9917 327.092 57.2013V57.1853Z" fill="#E4ECF2" stroke="#A1BDD3" stroke-width="0.802417" stroke-miterlimit="10"/>
<path id="KR11320" d="M250.863 92.7323C254.875 94.0964 258.085 96.9851 259.69 97.948C261.295 98.9109 262.9 103.725 266.109 105.33C269.319 106.935 276.653 106.935 277.006 110.145C277.359 113.354 275.738 114.959 278.948 119.774C282.158 124.588 288.577 131.008 290.182 127.798C291.787 124.588 293.391 122.983 294.996 124.588C296.601 126.193 299.939 129.531 303.085 128.665C306.23 127.798 309.44 122.983 312.649 121.379C315.378 120.014 321.54 114.045 323.354 112.263C322.455 111.397 321.62 110.658 320.866 110.145C319.358 109.102 318.106 107.593 316.886 106.245C315.233 104.416 313.741 102.377 311.991 100.596C311.157 99.7454 310.547 98.7184 309.809 97.7875C308.958 96.7284 308.108 95.6692 307.241 94.61C306.166 93.278 304.802 91.962 303.903 90.4856C302.571 88.8165 301.239 87.1315 299.891 85.4624C299.201 84.6119 298.511 83.7452 297.821 82.8947C297.468 82.4453 295.847 81.001 295.847 80.4714C295.044 79.4924 294.226 78.5135 293.375 77.5666C288.561 72.2546 286.956 76.4593 284.148 73.5385C281.339 70.6177 282.141 65.2255 283.746 63.6206C285.351 62.0158 282.141 53.9916 284.148 50.3005C286.154 46.6094 283.746 42.7578 282.141 39.5481C280.537 36.3385 278.932 34.7336 275.722 33.1288C273.861 32.198 271.453 29.1007 269.768 26.6774C269.608 26.6774 269.479 26.7095 269.303 26.7095C266.093 26.7095 261.279 26.7095 258.069 33.1288C254.859 39.5481 258.069 41.153 258.069 42.7578C258.069 44.3626 256.464 52.3868 253.254 52.3868C250.045 52.3868 245.23 53.9916 245.23 57.2013C245.23 60.411 237.206 62.0158 240.416 68.4351C243.625 74.8545 246.835 81.2738 245.23 84.4835C244.957 85.0131 244.749 85.5908 244.524 86.1846C245.76 88.319 248.103 91.8176 250.847 92.7484L250.863 92.7323Z" fill="#E4ECF2" stroke="#A1BDD3" stroke-width="0.802417" stroke-miterlimit="10"/>
<path id="KR11290" d="M240.431 102.939C243.641 103.725 242.742 105.394 244.796 106.967C246.851 108.54 245.246 118.169 246.851 121.379C248.455 124.588 247.027 129.403 248.536 132.612C250.044 135.822 250.06 139.032 246.851 139.032C243.641 139.032 237.222 144.665 240.431 145.868C243.641 147.072 248.327 147.056 247.589 148.661C246.851 150.266 246.851 152.657 250.863 152.272C254.875 151.87 264.504 151.87 266.109 153.475C267.713 155.08 272.528 159.734 274.133 162.222C275.738 164.709 274.133 167.919 278.947 167.919C283.762 167.919 283.746 167.919 286.955 169.524C290.181 171.128 290.887 172.733 294.546 169.524C298.205 166.314 304.625 161.499 306.229 158.29C307.834 155.08 306.422 154.085 309.535 152.978C312.649 151.87 309.439 145.451 314.254 145.451C319.068 145.451 319.068 139.032 325.487 140.637C331.907 142.241 333.512 139.032 335.116 135.822C336.448 133.158 342.9 132.035 345.853 131.73C344.569 129.643 343.381 125.744 344.745 122.983C344.81 122.839 344.906 122.711 344.986 122.582C342.226 122.229 339.466 124.588 336.721 124.588C333.977 124.588 327.975 116.708 323.353 112.263C321.54 114.044 315.361 120.014 312.649 121.379C309.439 122.983 306.229 127.798 303.084 128.664C299.939 129.531 296.6 126.193 294.996 124.588C293.391 122.983 291.786 124.588 290.181 127.798C288.576 131.008 282.157 124.588 278.947 119.774C275.738 114.959 277.342 113.354 277.005 110.145C276.668 106.935 269.318 106.935 266.109 105.33C262.899 103.725 261.294 98.9108 259.689 97.9479C258.084 96.985 254.875 94.0963 250.863 92.7322C248.134 91.8014 245.775 88.3029 244.54 86.1685C243.513 89.0411 242.646 92.4113 237.928 93.8877C238.008 97.643 238.489 102.458 240.431 102.939Z" fill="#E4ECF2" stroke="#A1BDD3" stroke-width="0.802417" stroke-miterlimit="10"/>
<path id="KR11320" d="M275.738 33.1127C278.947 34.7176 280.552 36.3224 282.157 39.5321C283.762 42.7417 286.153 46.5933 284.163 50.2844C282.157 53.9756 285.367 61.9997 283.762 63.6046C282.157 65.2094 281.339 70.6016 284.163 73.5224C286.971 76.4432 288.576 72.2546 293.391 77.5506C296.456 80.9207 304.849 91.8496 311.75 100.211C313.146 99.5689 316.244 97.7554 317.463 94.0803C319.068 89.2658 317.463 78.032 320.673 81.2417C323.883 84.4513 328.697 90.8707 328.697 84.4513C328.697 78.032 328.697 60.3788 327.092 57.1692C325.487 53.9595 322.278 50.7498 322.278 44.3305C322.278 39.2592 325.263 26.1798 325.343 20.1296C324.685 20.6913 324.188 21.2851 323.883 21.8628C322.813 24.0026 322.278 23.4677 322.278 20.258C322.278 15.4435 320.673 13.8387 317.463 13.8387C314.254 13.8387 309.439 9.02417 306.229 12.2338C303.02 15.4435 301.415 13.8387 301.415 10.629C301.415 7.41933 299.81 7.41933 296.6 5.8145C293.391 4.20967 286.971 1 282.157 1C277.342 1 277.342 9.02417 275.738 10.629C274.133 12.2338 269.318 18.6532 270.923 21.8628C272.432 24.896 272.48 26.4687 269.784 26.6452C271.469 29.0846 273.876 32.1659 275.738 33.0967V33.1127Z" fill="#E4ECF2" stroke="#A1BDD3" stroke-width="0.802417" stroke-miterlimit="10"/>
<path id="KR11650" d="M365.608 325.192C362.399 321.983 362.399 318.773 362.399 313.959C362.399 309.144 359.189 310.749 354.342 310.749C349.496 310.749 351.165 315.563 347.955 315.563C344.746 315.563 341.536 317.168 340.011 318.773C338.487 320.378 330.302 318.773 325.487 318.773C320.673 318.773 320.673 317.168 319.068 313.959C317.463 310.749 314.254 302.725 312.649 299.515C311.044 296.305 304.625 297.91 301.415 296.305C298.205 294.701 296.6 289.886 296.6 285.072C296.6 280.257 296.6 277.047 294.482 274.319C292.364 271.591 291.786 265.814 290.261 263.198C288.737 260.582 285.367 254.58 285.367 249.765C285.367 244.951 285.367 244.951 280.552 244.951C278.851 244.951 277.567 244.742 276.604 244.485C276.331 244.646 276.043 244.79 275.738 244.951C272.528 246.556 254.875 265.814 251.505 269.023C250.413 270.066 248.857 270.596 246.931 270.789C247.252 271.447 248.455 274.046 248.455 275.443C248.455 277.047 246.851 281.862 243.641 284.141C240.431 286.42 245.246 291.491 244.796 293.529C244.347 295.567 243.641 301.12 243.641 303.575V309.16C245.519 309.545 246.851 310.428 246.851 312.37C246.851 317.184 250.06 323.604 251.665 325.208C252.869 326.412 252.275 330.761 251.89 333.377C253.848 332.735 255.517 332.109 256.48 331.628C259.689 330.023 256.48 320.394 262.899 320.394C269.318 320.394 270.923 320.394 270.923 325.208C270.923 330.023 274.133 338.047 278.947 338.047C283.762 338.047 298.205 334.837 298.205 330.023C298.205 325.208 298.205 323.604 301.415 325.208C304.625 326.813 299.81 328.418 303.02 331.628C306.229 334.837 303.02 342.862 304.625 346.071C306.229 349.281 301.415 358.91 306.229 360.515C311.044 362.12 317.463 365.329 319.068 368.539C320.673 371.749 325.487 373.353 328.697 371.749C331.907 370.144 340.172 373 344.071 372.375C347.955 371.749 349.56 365.329 347.955 360.515C346.35 355.7 347.955 355.7 352.77 355.7C357.584 355.7 355.979 355.7 362.399 350.886C368.818 346.071 367.213 338.047 372.028 336.442V331.628C372.028 326.813 368.818 328.418 365.608 325.208V325.192Z" fill="#E4ECF2" stroke="#A1BDD3" stroke-width="0.802417" stroke-miterlimit="10"/>
<path id="KR11680" d="M391.286 299.515C388.076 296.305 386.471 291.491 383.262 288.281C380.052 285.072 373.632 283.467 368.69 282.135C363.747 280.803 359.189 278.652 357.44 275.443C355.69 272.233 354.374 277.047 347.955 275.443C341.536 273.838 344.745 269.023 343.141 267.418C341.536 265.814 341.536 257.789 341.536 256.185C341.536 254.837 340.396 250.07 340.043 248.61C336.079 248.032 332.645 247.294 331.907 246.556C330.302 244.951 309.439 233.717 303.02 230.507C296.6 227.298 290.181 232.112 285.367 236.927C281.018 241.276 279.268 243.009 276.604 244.485C277.567 244.742 278.851 244.951 280.552 244.951C283.762 244.951 285.367 246.556 285.367 249.765C285.367 254.58 288.737 260.582 290.261 263.198C291.786 265.814 292.364 271.591 294.482 274.319C296.6 277.047 296.6 280.257 296.6 285.072C296.6 289.886 298.205 294.701 301.415 296.305C304.625 297.91 311.044 296.305 312.649 299.515C314.254 302.725 317.463 310.749 319.068 313.959C320.673 317.168 320.673 318.773 325.487 318.773C330.302 318.773 338.487 320.378 340.011 318.773C341.536 317.168 344.745 315.563 347.955 315.563C351.165 315.563 349.512 310.749 354.342 310.749C359.173 310.749 362.399 309.144 362.399 313.959C362.399 318.773 362.399 321.983 365.608 325.192C368.818 328.402 372.028 326.797 372.028 331.612V336.426C376.842 334.821 383.262 330.007 383.262 328.402C383.262 326.797 386.471 325.192 391.286 328.402C396.1 331.612 399.31 333.217 399.31 330.007C399.31 328.049 401.701 324.326 404.285 322.047C400.658 317.249 396.1 308.743 396.1 307.539C396.1 305.934 394.495 302.725 391.286 299.515Z" fill="#E4ECF2" stroke="#A1BDD3" stroke-width="0.802417" stroke-miterlimit="10"/>
<path id="KR11740" d="M470.789 192.794C471.528 188.782 465.108 177.548 465.108 175.943C465.108 174.338 461.899 163.104 457.084 166.314C452.27 169.524 439.431 182.362 436.221 182.362C433.012 182.362 429.802 182.362 428.197 183.967C426.592 185.572 418.568 180.758 412.149 185.572C408.313 188.445 403.916 192.457 400.305 194.88C398.748 204.75 395.86 213.657 393.308 220.509C393.613 221.071 394.143 221.777 395.122 222.483C397.336 224.088 399.326 222.483 402.536 222.483C405.746 222.483 407.35 228.903 404.141 230.507C400.931 232.112 400.931 236.927 400.931 241.34C400.931 245.753 407.35 243.346 410.56 244.951C413.77 246.556 420.189 251.37 423.222 252.975C424.779 253.793 426.592 253.777 427.972 253.553C428.117 252.798 428.197 252.076 428.197 251.37C428.197 248.161 426.592 248.161 429.802 246.556C433.012 244.951 437.826 238.532 439.431 235.322C441.036 232.112 445.85 216.064 452.27 216.064C458.689 216.064 474.737 219.273 474.737 216.064C474.737 212.854 473.133 204.83 474.737 203.225C476.342 201.62 470.035 196.806 470.789 192.794Z" fill="#E4ECF2" stroke="#A1BDD3" stroke-width="0.802417" stroke-miterlimit="10"/>
<path id="KR11710" d="M423.222 252.975C420.189 251.37 413.77 246.556 410.56 244.951C407.35 243.346 400.931 245.753 400.931 241.34C400.931 236.927 400.931 232.112 404.141 230.507C407.35 228.902 405.745 222.483 402.536 222.483C399.326 222.483 397.336 224.088 395.121 222.483C394.142 221.777 393.613 221.087 393.308 220.509C392.602 222.403 391.928 224.136 391.302 225.693C388.092 233.717 375.254 238.531 372.044 241.741C368.834 244.951 357.6 249.765 352.786 249.765C350.17 249.765 344.746 249.3 340.06 248.61C340.413 250.07 341.552 254.837 341.552 256.185C341.552 257.789 341.552 265.814 343.157 267.418C344.762 269.023 341.552 273.838 347.971 275.443C354.391 277.047 355.707 272.233 357.456 275.443C359.205 278.652 363.747 280.803 368.706 282.135C373.649 283.467 380.068 285.072 383.278 288.281C386.487 291.491 388.092 296.305 391.302 299.515C394.512 302.725 396.116 305.934 396.116 307.539C396.116 308.743 400.674 317.249 404.301 322.047C405.954 320.603 407.703 319.736 408.955 320.378C412.165 321.983 413.77 320.378 416.979 318.773C420.189 317.168 412.165 309.401 416.979 311.68C421.794 313.959 423.399 309.144 428.213 307.539C433.028 305.934 434.632 302.725 434.632 301.12C434.632 299.515 436.237 294.701 439.447 294.701C442.657 294.701 447.471 288.281 447.471 283.467C447.471 278.652 449.076 270.628 444.261 270.628C439.447 270.628 433.028 267.418 429.818 269.023C426.608 270.628 423.399 270.628 425.003 264.209C426.255 259.218 427.491 256.185 427.988 253.553C426.592 253.761 424.795 253.793 423.238 252.975H423.222Z" fill="#E4ECF2" stroke="#A1BDD3" stroke-width="0.802417" stroke-miterlimit="10"/>
<path id="KR11410" d="M225.988 198.411C229.198 200.015 229.198 193.596 229.198 188.782C229.198 188.027 228.716 187.161 228.363 186.519C227.368 184.721 224.961 184.224 223.228 183.453C222.506 183.133 221.174 182.635 221.174 181.672C221.174 179.377 217.964 177.548 214.754 175.943C211.545 174.338 213.149 169.524 215.107 169.524C217.065 169.524 217.964 164.709 217.386 163.168C216.792 161.628 216.375 153.475 217.242 151.325C218.124 149.19 214.754 143.83 213.149 140.62C211.545 137.411 214.754 134.201 211.545 130.991C209.137 128.584 207.532 130.189 204.403 131.858C202.943 132.644 201.803 133.912 200.487 134.923C197.454 137.266 198.706 140.604 200.311 142.209C201.916 143.814 192.287 145.419 189.077 147.024C185.867 148.629 187.472 151.838 185.867 155.048C184.262 158.258 179.448 159.862 176.832 161.002C174.216 162.141 169.819 159.862 168.214 158.258C166.609 156.653 163.4 159.862 161.795 161.467C160.19 163.072 160.19 163.072 160.19 166.282C160.19 169.491 158.585 169.491 155.568 169.491C153.418 169.491 151.925 171.112 151.251 172.059C153.899 173.552 157.863 176.36 160.19 177.516C163.4 179.12 166.609 185.54 169.819 185.54C173.029 185.54 181.053 185.54 182.658 190.354C184.262 195.169 185.867 204.798 193.891 203.193C201.916 201.588 217.803 201.588 219.489 199.983C220.146 199.357 220.821 199.293 221.414 199.582C221.976 198.78 223.485 197.127 225.988 198.378V198.411Z" fill="#E4ECF2" stroke="#A1BDD3" stroke-width="0.802417" stroke-miterlimit="10"/>
<path id="KR11440" d="M139.327 200.015C142.537 203.225 163.4 216.064 179.448 217.668C191.42 218.872 203.376 220.06 209.346 225.259C210.742 224.569 213.021 223.077 212.732 220.686C212.331 217.283 216.343 216.064 221.302 213.785C222.778 213.111 223.79 211.939 223.95 210.302C224.046 209.259 223.998 208.104 223.725 207.093C223.388 205.857 222.859 204.782 222.939 203.402C222.987 202.567 222.891 201.668 222.522 200.898C222.377 200.609 222.233 200.288 221.992 200.063C221.8 199.871 221.302 199.534 221.045 199.454C220.869 199.405 220.676 199.422 220.5 199.454C220.114 199.534 219.745 199.742 219.472 199.999C217.787 201.604 201.9 201.604 193.875 203.209C185.851 204.814 184.246 195.185 182.642 190.37C181.037 185.556 173.013 185.556 169.803 185.556C166.593 185.556 163.384 179.136 160.174 177.532C158.778 176.842 157.51 175.814 156.21 174.964C155.359 174.402 154.493 173.857 153.61 173.343C152.647 172.781 151.62 172.3 150.689 171.674C150.24 171.369 149.486 171.112 148.94 171.112C147.335 171.112 140.916 164.693 140.916 163.088C140.916 161.483 139.311 159.878 134.497 158.274C131.447 157.263 130.324 153.668 129.923 151.164C128.318 151.405 127.13 152.159 126.472 153.459C124.868 156.669 124.868 161.483 124.868 163.088C124.868 164.693 126.472 166.298 121.658 167.903C118.336 169.01 108.129 173.182 101.068 174.595C102.994 176.216 105.931 178.238 110.424 180.741C124.868 188.765 136.101 196.79 139.311 199.999L139.327 200.015Z" fill="#E4ECF2" stroke="#A1BDD3" stroke-width="0.802417" stroke-miterlimit="10"/>
<path id="KR11380" d="M134.512 158.29C139.327 159.894 140.932 161.499 140.932 163.104C140.932 164.709 147.351 171.128 148.956 171.128C149.405 171.128 150.24 171.513 151.251 172.091C151.925 171.16 153.417 169.523 155.568 169.523C158.585 169.523 160.19 169.523 160.19 166.314C160.19 163.104 160.19 163.104 161.794 161.499C163.399 159.894 166.609 156.685 168.214 158.29C169.819 159.894 174.232 162.189 176.832 161.034C179.432 159.878 184.262 158.29 185.867 155.08C187.472 151.87 185.867 148.661 189.077 147.056C192.286 145.451 201.915 143.846 200.31 142.241C198.706 140.636 197.341 137.122 200.487 134.955C202.718 133.415 206.248 130.221 208.431 129.996C208.72 126.723 209.426 116.387 206.73 115.505C203.52 114.446 206.73 110.145 206.73 106.935C206.73 103.725 211.544 105.33 214.754 103.725C217.322 102.441 220.933 99.0873 222.265 97.8195C222.329 97.2578 222.505 96.5517 222.778 95.7011C225.988 86.0721 222.778 78.048 221.173 76.4431C219.568 74.8383 217.964 68.419 214.754 66.8141C211.544 65.2093 205.125 52.3706 200.31 57.1851C195.496 61.9996 190.681 66.8141 190.681 68.419C190.681 70.0238 187.472 74.8383 184.262 74.8383C181.052 74.8383 177.843 76.4431 176.238 78.048C174.633 79.6528 169.819 76.4431 165.004 82.8625C160.19 89.2818 166.609 90.8866 161.794 92.4915C156.98 94.0963 158.585 102.12 158.585 103.725C158.585 105.33 158.585 110.145 155.375 114.959C152.165 119.774 148.956 122.983 148.956 127.798C148.956 132.612 147.351 148.661 147.351 150.265C147.351 151.87 145.746 156.685 139.327 153.475C135.507 151.565 132.282 150.827 129.938 151.18C130.34 153.684 131.463 157.279 134.512 158.29Z" fill="#E4ECF2" stroke="#A1BDD3" stroke-width="0.802417" stroke-miterlimit="10"/>
<path id="KR11170" d="M272.994 214.331C272.673 213.544 272.368 212.774 271.726 212.164C271.148 211.602 270.41 211.346 269.624 211.362C267.586 211.362 265.596 212.694 263.959 213.801C260.203 216.337 258.085 212.87 256.48 208.056C254.875 203.241 238.827 206.451 235.617 204.846C232.408 203.241 230.803 201.636 227.593 203.241C225.443 204.316 224.014 205.392 223.308 205.985C223.982 208.794 225.025 212.084 221.302 213.801C216.359 216.08 212.331 217.283 212.732 220.702C213.021 223.093 210.726 224.601 209.346 225.276C211.384 227.041 212.732 229.272 213.15 232.128C214.754 243.362 209.94 251.386 219.569 256.201C229.198 261.015 242.037 267.435 248.456 259.41C254.875 251.386 274.133 233.733 278.948 230.523C279.445 230.186 279.959 229.769 280.472 229.32C280.328 228.1 279.959 226.094 278.948 224.104C278.097 222.387 276.99 220.814 275.899 219.241C275.337 218.439 274.791 217.637 274.278 216.802C274.005 216.369 273.748 215.935 273.507 215.486C273.299 215.117 273.138 214.732 272.978 214.347L272.994 214.331Z" fill="#E4ECF2" stroke="#A1BDD3" stroke-width="0.802417" stroke-miterlimit="10"/>
<path id="KR11140" d="M235.617 204.83C238.827 206.435 254.875 203.225 256.48 208.04C258.085 212.854 260.203 216.304 263.959 213.785C267.714 211.265 271.277 209.901 272.705 213.785C272.769 213.945 272.849 214.09 272.913 214.25C274.294 213.48 279.188 210.655 280.569 208.714C282.173 206.435 280.569 198.411 285.383 198.411C290.198 198.411 293.407 196.806 293.407 193.596C293.407 190.386 293.247 189.504 291.722 186.727C291.08 185.556 290.133 183.726 289.62 182.121C286.41 181.11 281.708 183.935 274.149 183.662C266.125 183.373 243.657 183.951 238.442 182.138C233.226 180.324 234.028 183.951 231.252 183.951C229.487 183.951 227.866 184.641 226.903 185.155C228.203 185.973 229.214 187.064 229.214 188.765C229.214 193.58 229.214 199.999 226.004 198.394C223.517 197.143 221.992 198.796 221.43 199.598C222.377 200.08 223.067 201.524 222.955 203.386C222.907 204.14 223.099 205.022 223.324 205.937C224.03 205.343 225.443 204.284 227.609 203.193C230.819 201.588 232.424 203.193 235.633 204.798L235.617 204.83Z" fill="#E4ECF2" stroke="#A1BDD3" stroke-width="0.802417" stroke-miterlimit="10"/>
<path id="KR11110" d="M292.541 170.968C290.487 172.027 289.492 170.775 286.972 169.524C283.747 167.919 283.779 167.919 278.964 167.919C274.15 167.919 275.754 164.709 274.15 162.222C272.545 159.734 267.73 155.08 266.125 153.475C264.521 151.87 254.892 151.87 250.88 152.272C246.867 152.673 246.867 150.266 247.606 148.661C248.344 147.056 243.658 147.056 240.448 145.868C237.238 144.681 243.658 139.032 246.867 139.032C250.077 139.032 250.077 135.822 248.553 132.612C247.028 129.403 248.472 124.588 246.867 121.379C245.263 118.169 246.867 108.54 244.813 106.967C242.759 105.394 243.658 103.725 240.448 102.939C238.506 102.458 238.025 97.6431 237.945 93.8878C237.72 93.952 237.495 94.0323 237.238 94.0964C231.381 95.5568 221.543 103.677 222.281 97.8197C220.949 99.0875 217.355 102.442 214.771 103.725C211.561 105.33 206.747 103.725 206.747 106.935C206.747 110.145 203.537 114.446 206.747 115.505C209.443 116.404 208.737 126.723 208.448 129.997C209.571 129.836 210.63 130.077 211.561 131.008C214.771 134.217 211.561 137.427 213.166 140.637C214.771 143.846 218.125 149.19 217.258 151.341C216.376 153.475 216.809 161.644 217.403 163.185C217.996 164.725 217.082 169.54 215.124 169.54C213.166 169.54 211.561 174.354 214.771 175.959C217.98 177.564 221.19 179.393 221.19 181.688C221.19 183.165 224.528 183.694 226.903 185.187C227.866 184.673 229.487 183.983 231.252 183.983C234.045 183.983 233.226 180.34 238.442 182.17C243.658 183.983 266.125 183.389 274.15 183.694C281.708 183.967 286.411 181.143 289.62 182.154C289.283 181.078 289.139 180.116 289.412 179.522C289.444 178.735 289.668 176.312 291 174.98C292.092 173.889 292.445 172.043 292.557 170.984L292.541 170.968Z" fill="#E4ECF2" stroke="#A1BDD3" stroke-width="0.802417" stroke-miterlimit="10"/>
<path id="KR11260" d="M366.411 116.564C362.399 114.959 355.867 116.387 354.31 117.27C351.887 118.666 349.015 119.212 346.752 120.881C345.612 121.716 344.649 122.791 344.312 124.187C343.975 125.583 344.12 127.076 344.473 128.456C344.842 129.916 345.452 131.489 346.479 132.612C347.939 134.217 347.939 140.637 346.334 143.846C344.73 147.056 341.889 149.271 344.12 152.978C346.334 156.685 351.293 163.634 351.213 165.784C351.149 167.71 352.449 178.27 353.877 181.544C354.503 181.046 355.193 180.773 355.963 180.773C359.173 180.773 365.047 182.378 368.529 180.773C372.012 179.169 378.367 183.983 379.201 180.773C379.603 179.265 380.87 177.387 382.122 175.831C380.148 173.728 378.495 171.642 381.641 169.54C386.455 166.33 391.27 163.12 391.27 159.911C391.27 156.701 392.875 155.096 394.479 153.491C396.084 151.886 397.689 148.677 396.084 145.467C394.479 142.257 392.875 142.257 396.084 140.653C399.294 139.048 400.899 139.048 399.294 134.233C397.689 129.419 397.689 124.604 397.689 122.999C397.689 121.395 397.689 110.161 392.875 111.766C389.488 112.889 386.102 114.815 385.524 113.611C383.374 115.136 380.726 116.58 378.431 116.58C373.617 116.58 370.407 118.185 366.395 116.58L366.411 116.564Z" fill="#E4ECF2" stroke="#A1BDD3" stroke-width="0.802417" stroke-miterlimit="10"/>
<path id="KR11215" d="M368.545 180.758C366.106 181.881 363.153 181.48 360.585 181.191C358.066 180.902 355.787 180.003 353.62 181.865C351.005 184.112 349.817 187.578 347.955 190.37C347.474 191.093 347.073 191.847 346.752 192.649C346.591 193.067 346.447 193.5 346.334 193.933C346.158 194.655 346.046 195.378 345.981 196.116C345.949 196.485 345.933 196.854 345.933 197.223C345.933 197.913 345.965 198.603 346.014 199.293C346.094 200.369 346.286 201.46 346.238 202.551C346.142 205.103 336.705 219.257 335.101 222.467C333.881 224.923 330.784 232.032 329.387 235.258C331.41 236.83 333.175 238.034 335.101 238.515C341.52 240.12 354.359 243.33 363.988 236.911C373.617 230.491 383.021 227.875 386.343 216.353C388.67 208.248 390.82 201.091 391.655 196.71C387.932 197.464 382.877 200.144 381.641 195.185C380.036 188.766 386.455 182.346 384.85 179.137C384.289 178.029 383.165 176.906 382.122 175.799C380.887 177.355 379.603 179.217 379.201 180.741C378.367 183.951 372.012 179.137 368.529 180.741L368.545 180.758Z" fill="#E4ECF2" stroke="#A1BDD3" stroke-width="0.802417" stroke-miterlimit="10"/>
<path id="KR11200" d="M346.254 202.567C346.319 200.882 345.644 198.218 346.11 195.201C345.324 195.169 342.643 195.024 339.931 194.013C336.722 192.81 333.512 193.612 330.126 192.81C326.74 192.007 327.093 188.798 325.488 188.798C323.883 188.798 315.859 180.773 312.649 177.564C309.439 174.354 306.23 179.169 303.02 180.773C299.81 182.378 296.601 180.773 291.786 179.169C290.888 178.864 289.812 178.655 289.331 179.634C288.849 180.613 289.539 181.849 289.812 182.795C289.957 183.261 290.165 183.71 290.358 184.144C290.759 185.026 291.225 185.893 291.69 186.743C293.215 189.504 293.375 190.402 293.375 193.612C293.375 196.822 290.165 198.427 285.351 198.427C280.536 198.427 282.141 206.451 280.536 208.73C279.156 210.671 274.278 213.496 272.881 214.266C274.39 217.941 277.391 221.023 278.932 224.104C279.927 226.11 280.312 228.1 280.456 229.32C284.902 225.452 290.406 218.182 306.214 222.499C318.603 225.869 324.653 231.614 329.388 235.29C330.784 232.048 333.881 224.938 335.101 222.499C336.706 219.289 346.142 205.119 346.238 202.583L346.254 202.567Z" fill="#E4ECF2" stroke="#A1BDD3" stroke-width="0.802417" stroke-miterlimit="10"/>
<path id="KR11230" d="M351.246 165.784C351.31 163.65 346.367 156.685 344.152 152.978C341.938 149.271 344.762 147.056 346.367 143.846C347.972 140.637 347.972 134.217 346.512 132.612C346.303 132.388 346.078 132.067 345.87 131.73C342.917 132.035 336.481 133.158 335.133 135.822C333.528 139.032 331.924 142.241 325.504 140.637C319.085 139.032 319.085 145.451 314.27 145.451C309.456 145.451 312.666 151.87 309.552 152.978C306.439 154.085 307.851 155.08 306.246 158.29C304.641 161.499 298.222 166.314 294.563 169.524C293.761 170.214 293.119 170.679 292.541 170.968C292.429 172.027 292.092 173.857 290.984 174.964C289.652 176.296 289.428 178.719 289.396 179.506C289.684 178.912 290.391 178.687 291.787 179.153C296.601 180.757 299.811 182.362 303.021 180.757C306.23 179.153 309.44 174.338 312.65 177.548C315.859 180.757 323.883 188.782 325.488 188.782C327.093 188.782 326.74 191.991 330.126 192.794C333.512 193.596 336.722 192.794 339.932 193.997C342.644 195.008 345.324 195.169 346.11 195.185C346.351 193.644 346.881 192.007 347.956 190.37C350.395 186.711 351.904 183.068 353.894 181.512C352.465 178.238 351.166 167.678 351.23 165.752L351.246 165.784Z" fill="#E4ECF2" stroke="#A1BDD3" stroke-width="0.802417" stroke-miterlimit="10"/>
<path id="KR11560" d="M161.795 224.088C150.561 222.483 134.513 209.644 132.908 206.435C132.363 205.343 130.501 203.69 128.158 201.893C128.463 203.145 129.698 208.425 129.698 211.249C129.698 211.522 129.65 211.747 129.586 211.955C130.774 212.501 132.459 213.239 134.015 213.769C136.728 214.7 137.723 225.677 137.723 229.159C137.723 232.642 140.932 233.717 137.723 235.322C134.513 236.926 131.303 238.531 129.698 239.59C128.094 240.65 126.489 244.951 128.094 248.16C129.249 250.455 128.72 252.766 127.163 255.061C128.896 256.281 133.534 259.394 136.118 259.394C139.327 259.394 142.537 260.999 142.537 265.813C142.537 270.628 145.747 280.257 145.747 283.467C145.747 286.676 147.352 293.096 150.561 294.7C153.771 296.305 155.376 296.305 156.981 291.491C158.585 286.676 161.795 280.257 166.61 280.257C171.424 280.257 171.424 280.257 173.029 275.442C174.634 270.628 177.843 277.047 177.843 270.628C177.843 264.209 176.239 254.58 185.868 254.58H205.206C204.259 250.776 204.548 245.191 203.521 236.926C201.916 224.088 173.029 225.693 161.795 224.088Z" fill="#E4ECF2" stroke="#A1BDD3" stroke-width="0.802417" stroke-miterlimit="10"/>
<path id="KR11470" d="M68.7146 265.814C71.9243 264.209 75.134 264.209 75.134 267.418C75.134 270.628 78.3436 273.517 79.9485 272.072C81.5533 270.628 89.5775 263.599 95.1944 263.904C100.811 264.209 104.791 260.999 106.011 262.604C107.231 264.209 107.231 269.023 112.045 269.023C116.86 269.023 120.069 270.628 121.674 269.023C123.279 267.418 121.674 260.999 124.884 257.789C127.275 255.398 129.843 251.675 128.093 248.16C126.489 244.951 128.093 240.65 129.698 239.591C131.303 238.531 134.513 236.927 137.722 235.322C140.932 233.717 137.722 232.642 137.722 229.159C137.722 225.677 136.711 214.7 134.015 213.769C132.475 213.239 130.774 212.501 129.586 211.955C128.88 214.186 124.739 212.854 123.279 212.854C121.674 212.854 115.255 209.644 112.045 209.644C108.835 209.644 110.44 228.902 110.44 233.717C110.44 238.531 107.231 236.927 104.021 236.927C100.811 236.927 89.5775 238.531 86.9134 240.136C84.2494 241.741 83.1581 241.741 81.5533 240.136C79.9485 238.531 81.5533 232.112 78.3436 228.902C75.134 225.693 75.134 220.878 73.8822 219.915C72.6304 218.952 73.5291 214.459 70.3195 212.854C67.1098 211.249 68.7146 216.064 67.1098 219.273C66.4679 220.573 65.2963 222.114 64.1248 223.51C65.4889 223.783 65.505 225.179 65.505 227.298C65.505 230.507 63.9001 235.322 67.1098 238.531C70.3195 241.741 63.9001 244.951 63.9001 251.37C63.9001 254.5 63.9001 259.555 63.531 264.08C64.7507 265.348 66.7407 266.793 68.7146 265.814Z" fill="#E4ECF2" stroke="#A1BDD3" stroke-width="0.802417" stroke-miterlimit="10"/>
<path id="KR11500" d="M70.3193 212.854C73.529 214.459 72.6463 218.952 73.882 219.915C75.1338 220.878 75.1338 225.693 78.3435 228.902C81.5531 232.112 79.9483 238.531 81.5531 240.136C83.158 241.741 84.2332 241.741 86.9133 240.136C89.5773 238.531 100.811 236.927 104.021 236.927C107.23 236.927 110.44 238.531 110.44 233.717C110.44 228.902 108.835 209.644 112.045 209.644C115.255 209.644 121.674 212.854 123.279 212.854C124.498 212.854 125.734 212.918 126.954 213.063C132.105 213.656 129.666 209.484 129.217 206.884C128.928 205.215 128.575 203.546 128.174 201.909C123.632 198.427 117.261 194.398 114.918 192.81C111.355 190.402 97.6175 183.983 89.5934 179.169C85.4529 176.681 83.0136 170.775 81.6334 165.64C78.0867 163.361 74.861 161.227 73.545 159.911C70.3354 156.701 60.7064 140.653 57.4967 140.653C54.287 140.653 51.0774 140.653 49.4725 135.838C49.4725 135.838 44.658 127.814 39.8435 134.233C35.029 140.653 28.6097 145.467 33.4242 148.677C38.2387 151.886 36.6339 153.491 35.029 155.096C33.4242 156.701 25.4 167.935 23.7952 169.54C22.1904 171.144 20.5855 179.169 15.771 179.169C10.9565 179.169 4.53718 182.378 4.53718 187.193C4.53718 192.007 -0.277317 192.007 1.32752 201.636C2.93235 211.265 1.32752 208.056 9.35168 211.265C17.3759 214.475 22.1904 209.66 23.7952 212.87C25.4 216.08 23.7952 222.499 28.6097 227.314C33.4242 232.128 36.6339 228.918 36.6339 225.709C36.6339 222.499 30.2145 216.08 38.2387 216.08C46.2629 216.08 54.287 214.475 54.287 217.685C54.287 220.894 55.8919 225.709 60.7064 224.104C62.3593 223.558 63.4346 223.382 64.1407 223.526C65.3122 222.13 66.4677 220.573 67.1257 219.289C68.7305 216.08 67.1257 211.265 70.3354 212.87L70.3193 212.854Z" fill="#E4ECF2" stroke="#A1BDD3" stroke-width="0.802417" stroke-miterlimit="10"/>
<path id="KR11530" d="M150.561 294.7C147.351 293.096 145.747 286.676 145.747 283.467C145.747 280.257 142.537 270.628 142.537 265.813C142.537 260.999 139.327 259.394 136.118 259.394C133.534 259.394 128.896 256.297 127.163 255.061C126.553 255.976 125.782 256.874 124.884 257.789C121.674 260.999 123.279 267.418 121.674 269.023C120.069 270.628 116.86 269.023 112.045 269.023C107.231 269.023 107.231 264.209 106.011 262.604C104.791 260.999 100.811 264.209 95.1943 263.904C89.5774 263.599 81.5532 270.628 79.9484 272.072C78.3435 273.517 75.1339 270.628 75.1339 267.418C75.1339 264.209 71.9242 264.209 68.7145 265.813C66.7245 266.808 64.7506 265.348 63.5309 264.08C63.1458 268.831 62.3434 273.019 60.6904 273.838C57.4807 275.442 49.4565 275.442 49.4565 280.257C49.4565 285.071 52.6662 285.071 55.8759 285.071C59.0855 285.071 63.9 291.491 60.6904 291.491C57.4807 291.491 55.8759 294.7 57.4807 297.91C59.0855 301.12 57.4807 304.329 55.8759 305.934C54.271 307.539 55.8759 309.144 57.4807 310.749C59.0855 312.354 60.6904 309.144 65.5049 309.144C70.3194 309.144 75.1339 307.539 78.3435 309.144C81.5532 310.749 85.4851 311.647 89.1441 311.198C92.7871 310.749 91.1822 305.934 91.1822 304.329C91.1822 302.725 91.1822 302.725 94.3919 301.12C97.6015 299.515 97.6015 294.7 100.811 294.7C104.021 294.7 104.021 291.491 107.231 289.886C110.44 288.281 115.255 283.467 118.464 286.676C120.486 288.698 121.867 290.079 121.818 291.619C122.46 292.229 125.285 294.7 128.093 294.7C131.303 294.7 134.513 297.91 134.513 299.515C134.513 301.12 134.513 304.329 140.932 304.329C143.66 304.329 148.122 303.752 152.342 303.575C152.663 302.404 153.402 300.125 154.75 298.424C154.926 297.316 155.183 295.936 155.424 294.684C154.22 296.145 152.76 295.808 150.561 294.684V294.7Z" fill="#E4ECF2" stroke="#A1BDD3" stroke-width="0.802417" stroke-miterlimit="10"/>
<path id="KR11620" d="M251.665 325.192C250.06 323.588 246.85 317.168 246.85 312.354C246.85 306.753 236.965 309.144 234.012 309.144C229.197 309.144 227.592 302.725 225.988 301.12C224.383 299.515 225.988 294.701 223.917 291.491C221.847 288.281 217.963 286.676 216.359 288.281C214.754 289.886 211.544 288.281 206.73 286.58C201.915 284.879 197.101 286.676 190.681 283.467C184.262 280.257 184.262 283.467 182.657 286.676C181.052 289.886 181.052 291.491 177.12 291.491C173.189 291.491 169.818 291.491 168.214 293.096C166.609 294.701 163.399 296.305 158.585 296.305C154.685 296.305 152.887 301.585 152.342 303.575C158.071 303.335 163.399 303.848 163.399 307.539C163.399 313.959 163.399 329.445 166.609 331.323C169.818 333.2 179.447 336.426 181.052 339.636C182.015 341.578 181.823 344.916 181.502 347.259C182.272 347.13 183.171 347.644 184.262 349.265C187.472 354.079 192.286 355.684 192.286 362.104C192.286 368.523 197.101 363.708 200.31 362.104C203.52 360.499 211.544 358.894 216.359 358.894C221.173 358.894 224.383 354.079 225.988 350.87C227.592 347.66 234.814 337.213 238.425 336.827C240.961 336.555 247.252 334.886 251.89 333.361C252.259 330.745 252.869 326.396 251.665 325.192Z" fill="#E4ECF2" stroke="#A1BDD3" stroke-width="0.802417" stroke-miterlimit="10"/>
<path id="KR11545" d="M181.053 339.636C179.448 336.426 169.819 333.216 166.609 331.323C163.399 329.429 163.399 313.958 163.399 307.523C163.399 305.421 161.522 304.458 159.724 303.992C153.642 302.452 147.094 304.313 140.932 304.313C134.512 304.313 134.512 301.104 134.512 299.499C134.512 297.894 131.303 294.684 128.093 294.684C125.269 294.684 122.46 292.213 121.818 291.603C121.786 292.518 121.257 293.481 120.069 294.684C116.859 297.894 120.39 308.646 124.242 311.294C128.093 313.942 132.908 325.176 134.512 326.781C136.117 328.386 132.908 333.2 136.117 336.41C139.327 339.62 144.141 338.015 144.141 342.829C144.141 347.644 145.746 358.878 152.166 362.087C158.585 365.297 164.748 368.507 164.073 362.087C163.399 355.668 163.399 357.273 168.214 357.273C173.028 357.273 176.238 355.668 177.843 352.458C178.902 350.324 179.977 347.516 181.502 347.243C181.807 344.9 182.016 341.546 181.053 339.62V339.636Z" fill="#E4ECF2" stroke="#A1BDD3" stroke-width="0.802417" stroke-miterlimit="10"/>
<path id="KR11590" d="M243.641 284.141C246.85 281.862 248.455 277.048 248.455 275.443C248.455 274.046 247.252 271.447 246.931 270.789C242.919 271.19 237.302 270.115 230.802 269.023C221.173 267.419 213.149 262.604 208.334 259.394C206.617 258.255 205.719 256.682 205.205 254.58H185.867C176.238 254.58 177.843 264.209 177.843 270.628C177.843 277.048 174.633 270.628 173.028 275.443C171.423 280.257 171.423 280.257 166.609 280.257C161.794 280.257 158.585 286.677 156.98 291.491C156.482 293 155.985 294.027 155.423 294.685C155.182 295.92 154.926 297.301 154.749 298.424C155.696 297.22 156.948 296.306 158.569 296.306C163.383 296.306 166.593 294.701 168.198 293.096C169.802 291.491 173.173 291.491 177.104 291.491C181.036 291.491 181.036 289.886 182.641 286.677C184.246 283.467 184.246 280.257 190.665 283.467C197.085 286.677 201.899 284.879 206.714 286.58C211.528 288.281 214.738 289.886 216.343 288.281C217.947 286.677 221.815 288.281 223.901 291.491C225.988 294.701 224.367 299.515 225.972 301.12C227.576 302.725 229.181 309.144 233.996 309.144C236.868 309.144 240.848 308.582 243.625 309.144V303.559C243.625 301.12 244.331 295.551 244.78 293.513C245.23 291.475 240.415 286.404 243.625 284.125L243.641 284.141Z" fill="#E4ECF2" stroke="#A1BDD3" stroke-width="0.802417" stroke-miterlimit="10"/>
</svg>
