<svg width="1157" height="576" viewBox="0 0 1157 576" fill="none" xmlns="http://www.w3.org/2000/svg">
<path id="south-america" d="M381.956 354.194C372.465 351.03 369.301 347.866 364.556 347.866C359.81 347.866 355.065 349.448 355.065 346.285C355.065 343.121 351.901 338.375 345.574 338.375C339.246 338.375 342.41 335.212 336.083 336.793C329.755 338.375 326.591 335.212 329.755 333.63C332.919 332.048 334.501 328.884 331.337 325.721C328.173 322.557 331.337 320.975 326.591 317.811C321.846 314.648 320.264 309.902 312.355 309.902C304.446 309.902 307.609 311.484 302.864 306.738C298.118 301.993 291.791 297.247 290.209 295.666C288.627 294.084 291.791 287.756 287.045 287.756C282.3 287.756 280.718 287.756 279.136 289.338C277.554 290.92 275.973 292.502 269.645 290.92C263.318 289.338 256.99 281.429 252.245 283.011C247.499 284.593 236.426 287.756 234.845 290.92C233.563 293.467 232.298 299.098 230.194 298.703C229.688 300.19 229.103 301.408 228.517 301.993C227.711 302.8 227.078 305.473 226.651 307.877C228.011 314.996 228.944 324.392 225.354 327.682C220.608 332.048 212.699 341.539 214.281 344.703C215.863 347.866 219.026 351.03 217.444 352.612C215.863 354.194 212.699 360.521 215.863 365.267C219.026 370.012 228.517 381.085 233.263 392.158C238.008 403.231 244.336 407.976 249.081 409.558C253.827 411.14 263.318 415.886 263.318 430.122C263.318 444.359 263.318 471.25 264.9 474.414C266.481 477.577 268.063 490.232 266.481 494.978C264.9 499.723 264.9 502.887 266.481 506.051C268.063 509.214 269.645 523.451 271.227 525.033C272.809 526.615 274.391 526.615 274.391 523.451C274.391 520.287 277.554 520.287 277.554 521.869C277.554 523.451 277.554 529.778 274.391 529.778C271.227 529.778 271.227 531.36 272.809 532.942C274.391 534.524 268.063 537.687 271.227 539.269C274.391 540.851 279.136 538.842 277.554 542.211C275.973 545.581 273.442 548.08 277.871 551.576C282.3 555.072 287.045 556.654 288.627 561.399C290.209 566.145 299.7 572.472 307.609 574.054C315.519 575.636 326.591 575.636 318.682 570.89C310.773 566.145 302.864 558.236 304.446 551.908C306.028 545.581 310.773 542.417 306.028 539.253C301.282 536.09 299.7 534.508 302.864 529.762C306.028 525.017 304.446 523.435 307.609 520.271C310.773 517.108 304.446 517.108 302.864 517.108C301.282 517.108 299.7 513.944 304.446 513.944C309.191 513.944 309.191 512.362 309.191 509.198C309.191 506.035 310.773 504.453 313.937 504.453C317.1 504.453 325.01 504.453 325.01 496.544C325.01 488.635 318.682 490.216 326.591 487.053C334.501 483.889 339.246 477.562 340.828 472.816C342.41 468.071 348.737 458.58 348.737 453.834C348.737 449.088 343.992 442.761 353.483 439.597C362.974 436.434 366.138 438.016 369.301 434.852C372.465 431.688 378.792 420.615 378.792 412.706C378.792 404.797 377.21 395.306 380.374 388.978C383.538 382.651 391.447 377.906 391.447 369.996C391.447 362.087 391.447 357.342 381.956 354.178V354.194Z" fill="#E4ECF2" stroke="#A1BDD3" stroke-width="0.790921" stroke-miterlimit="10"/>
<path id="north-america" d="M230.178 298.703C229.672 298.608 229.119 298.165 228.502 297.247C225.338 292.502 223.756 292.502 220.593 294.084C217.429 295.666 215.847 300.411 209.52 294.084C203.192 287.756 207.938 287.756 207.938 283.011C207.938 278.265 212.683 271.938 206.356 270.356C200.029 268.774 198.447 267.192 195.283 267.192C192.119 267.192 187.374 268.774 190.538 264.029C193.701 259.283 196.865 254.538 198.447 251.374C200.029 248.21 201.61 241.883 196.865 243.465C192.119 245.047 187.374 243.465 184.21 248.21C181.046 252.956 184.21 252.956 176.301 254.538C168.392 256.12 163.646 257.701 162.064 252.956C160.483 248.21 160.483 229.228 162.064 226.064C163.646 222.901 165.228 226.064 165.228 222.901C165.228 219.737 174.719 211.828 177.883 210.246C181.046 208.664 187.374 211.828 192.119 211.828C196.865 211.828 196.865 210.246 196.865 207.082C196.865 203.919 200.029 205.501 201.61 205.501C201.61 205.501 209.52 210.246 212.683 210.246C215.847 210.246 219.011 207.082 219.011 213.41C219.011 219.737 220.593 229.228 223.756 229.228C226.92 229.228 228.502 229.228 228.502 221.319C228.502 213.41 226.92 202.337 231.665 199.173C236.411 196.01 255.393 186.518 255.393 183.355C255.393 180.191 253.811 175.446 261.72 169.118C269.63 162.791 274.375 159.627 277.539 159.627C280.703 159.627 282.284 158.045 282.284 154.882C282.284 151.718 282.284 148.554 287.03 146.972C291.775 145.391 304.43 140.645 299.685 145.391C294.939 150.136 299.685 151.718 302.848 150.136C306.012 148.554 312.339 145.391 317.085 143.809C321.83 142.227 326.576 137.481 323.412 135.9C320.249 134.318 315.503 143.809 312.339 139.063C309.176 134.318 307.594 131.154 310.758 129.572C313.921 127.99 312.339 124.827 310.758 124.827C309.176 124.827 306.012 121.663 310.758 121.663C315.503 121.663 329.74 121.663 332.903 120.081C336.067 118.499 343.976 113.754 339.231 120.081C334.485 126.408 328.158 132.736 334.485 132.736C340.813 132.736 342.394 131.154 343.976 132.736C345.558 134.318 347.14 135.9 348.722 132.736C350.304 129.572 348.722 124.827 345.558 124.827C342.394 124.827 337.649 124.827 342.394 120.081C347.14 115.336 348.722 112.172 347.14 107.426C345.558 102.681 336.067 102.681 336.067 96.3535C336.067 90.0261 336.067 77.3714 331.321 82.1169C326.576 86.8624 321.83 88.4443 318.667 86.8624C315.503 85.2806 313.921 80.5351 317.085 80.5351C320.249 80.5351 320.249 75.7895 313.921 74.2077C307.594 72.6258 296.521 71.044 293.357 77.3714C290.194 83.6987 287.03 86.8624 288.612 90.0261C290.194 93.1898 288.612 96.3535 285.448 97.9353C282.284 99.5172 274.375 99.5172 272.793 105.845C271.211 112.172 271.211 113.754 268.048 115.336C264.884 116.917 260.139 115.336 261.72 110.59C263.302 105.845 264.884 102.681 266.466 102.681C268.048 102.681 269.63 101.099 266.466 101.099C263.302 101.099 247.484 97.9353 244.32 93.1898C241.156 88.4443 237.993 82.1169 252.229 75.7895C266.466 69.4622 272.793 67.8803 277.539 67.8803C282.284 67.8803 287.03 69.4622 288.612 67.8803C290.194 66.2985 299.685 69.4622 294.939 64.7166C290.194 59.9711 283.866 58.3893 291.775 58.3893C299.685 58.3893 301.266 56.8074 302.848 53.6437C304.43 50.4801 309.176 45.7345 304.43 45.7345C299.685 45.7345 304.43 42.5708 309.176 44.1527C313.921 45.7345 315.503 45.7345 317.085 44.1527C318.667 42.5708 321.83 42.5708 321.83 44.1527C321.83 45.7345 331.321 47.3164 326.576 52.0619C321.83 56.8074 307.594 61.5529 313.921 63.1348C320.249 64.7166 320.249 67.8803 321.83 69.4622C323.412 71.044 328.158 74.2077 329.74 74.2077C331.321 74.2077 334.485 72.6258 332.903 71.044C331.321 69.4622 331.321 67.8803 332.903 67.8803C334.485 67.8803 337.649 69.4622 340.813 67.8803C343.976 66.2985 340.813 61.5529 339.231 61.5529C337.649 61.5529 334.485 61.5529 337.649 58.3893C340.813 55.2256 343.976 55.2256 345.558 58.3893C347.14 61.5529 347.14 61.5529 351.885 59.9711C356.631 58.3893 356.631 58.3893 353.467 55.2256C350.304 52.0619 342.394 48.8982 345.558 47.3164C348.722 45.7345 348.722 42.5708 343.976 40.989C339.231 39.4072 336.067 39.4072 332.903 36.2435C329.74 33.0798 324.994 31.498 318.667 31.498H301.266C299.685 31.498 291.775 34.6616 293.357 37.8253C294.939 40.989 299.685 45.7345 296.521 47.3164C293.357 48.8982 287.03 52.0619 287.03 48.8982C287.03 45.7345 280.703 47.3164 282.284 40.989C283.866 34.6616 288.612 36.2435 290.194 34.6616C291.775 33.0798 299.685 26.7524 291.775 28.3343C283.866 29.9161 282.284 31.498 280.703 33.0798C279.121 34.6616 274.375 34.6616 275.957 33.0798C277.539 31.498 274.375 28.3343 269.63 31.498C264.884 34.6616 263.302 36.2435 266.466 37.8253C269.63 39.4072 269.63 44.1527 269.63 47.3164C269.63 50.4801 266.466 50.4801 261.72 50.4801H244.32C242.738 50.4801 233.247 45.7345 239.575 45.7345C245.902 45.7345 249.066 47.3164 250.648 45.7345C252.229 44.1527 256.975 45.7345 253.811 42.5708C250.648 39.4072 247.484 39.4072 250.648 37.8253C253.811 36.2435 253.811 31.498 250.648 31.498C247.484 31.498 245.902 33.0798 245.902 34.6616C245.902 36.2435 245.902 37.8253 241.156 36.2435C236.411 34.6616 228.502 28.3343 225.338 28.3343C222.174 28.3343 214.265 28.3343 211.101 29.9161C207.938 31.498 196.865 34.6616 201.61 37.8253C206.356 40.989 209.52 37.8253 212.683 37.8253C215.847 37.8253 215.847 40.989 220.593 40.989C225.338 40.989 226.92 42.5708 222.174 42.5708C217.429 42.5708 207.938 40.989 212.683 44.1527C217.429 47.3164 219.011 48.8982 222.174 48.8982C225.338 48.8982 228.502 48.8982 228.502 50.4801C228.502 52.0619 225.338 53.6437 220.593 53.6437C215.847 53.6437 214.265 48.8982 206.356 47.3164C198.447 45.7345 188.956 42.5708 173.137 44.1527C157.319 45.7345 152.573 47.3164 141.5 44.1527C130.428 40.989 114.609 37.8253 92.4633 40.989C70.3175 44.1527 63.9902 47.3164 65.572 50.4801C67.1539 53.6437 70.3175 55.2256 63.9902 55.2256C57.6628 55.2256 43.4262 55.2256 43.4262 58.3893C43.4262 61.5529 45.0081 63.1348 49.7536 63.1348C54.4991 63.1348 57.6628 63.1348 57.6628 64.7166C57.6628 66.2985 57.6628 67.8803 49.7536 67.8803C41.8444 67.8803 33.9352 69.4622 30.7715 72.6258C30.7715 72.6258 24.4441 78.9532 27.6078 80.5351C30.7715 82.1169 26.026 83.6987 32.3533 85.2806C38.6807 86.8624 40.2626 86.8624 33.9352 90.0261C27.6078 93.1898 -0.865339 99.5172 0.716503 101.099C2.29834 102.681 27.6078 96.3535 38.6807 93.1898C49.7536 90.0261 56.081 80.5351 59.2447 82.1169C62.4083 83.6987 70.3175 82.1169 73.4812 80.5351C76.6449 78.9532 84.5541 75.7895 87.7178 77.3714C90.8815 78.9532 94.0452 82.1169 98.7907 82.1169C103.536 82.1169 108.282 83.6987 105.118 88.4443C101.954 93.1898 101.954 97.9353 105.118 99.5172C108.282 101.099 109.864 104.263 108.282 107.426C106.7 110.59 108.282 127.99 105.118 132.736C101.954 137.481 84.5541 159.627 86.136 172.282C87.7178 184.937 89.2997 189.682 94.0452 191.264C98.7907 192.846 98.7907 197.591 98.7907 199.173C98.7907 200.755 97.2089 203.919 100.373 208.664C103.536 213.41 103.536 216.573 100.373 216.573C97.2089 216.573 97.2089 219.737 100.373 221.319C103.536 222.901 105.118 222.901 106.7 227.646C108.282 232.392 109.864 235.556 113.027 237.137C116.191 238.719 117.773 235.556 116.191 232.392C114.609 229.228 108.282 214.992 108.282 211.828C108.282 208.664 103.536 199.173 108.282 199.173C113.027 199.173 109.864 205.501 111.445 210.246C113.027 214.992 119.355 227.646 124.1 230.81C128.846 233.974 130.428 240.301 128.846 243.465C127.264 246.628 130.428 252.956 133.591 256.12C136.755 259.283 141.5 260.865 146.246 264.029C150.991 267.192 158.901 268.774 163.646 268.774C168.392 268.774 171.555 268.774 173.137 271.938C174.719 275.102 179.465 279.847 184.21 279.847C188.956 279.847 193.701 281.429 195.283 286.175C196.865 290.92 193.701 295.666 200.029 295.666C206.356 295.666 204.774 303.575 211.101 303.575C217.429 303.575 217.429 305.157 219.011 301.993C220.593 298.829 223.756 295.666 225.338 301.993C225.718 303.527 226.208 305.584 226.635 307.877C227.062 305.473 227.695 302.8 228.502 301.993C229.087 301.408 229.672 300.174 230.178 298.703Z M214.281 237.137C214.281 237.137 206.372 240.301 207.954 241.883C209.536 243.465 212.699 240.301 217.445 240.301C222.19 240.301 228.518 243.465 231.681 246.628C234.845 249.792 233.263 249.792 239.591 249.792C245.918 249.792 245.918 248.21 239.591 245.047C233.263 241.883 222.19 235.556 214.281 237.137Z M245.918 259.283C250.663 259.283 252.735 260.865 255.662 259.283C258.588 257.701 260.154 257.701 263.318 257.701C266.482 257.701 269.645 257.701 266.482 254.538C263.318 251.374 258.572 249.792 254.649 249.792C254.649 249.792 247.5 249.792 249.081 252.956C250.663 256.119 241.172 259.283 245.918 259.283Z M467.375 42.5708C462.63 42.5708 464.212 39.4071 467.375 39.4071C470.539 39.4071 478.448 45.7345 475.285 39.4071C472.121 33.0798 470.428 33.5859 476.012 32.5419C481.596 31.4979 486.358 29.9161 486.358 26.7524C486.358 23.5887 486.358 20.425 487.939 20.425C489.521 20.425 492.685 17.1822 487.939 17.2297C483.194 17.2772 486.358 15.6795 489.521 14.0977C492.685 12.5158 506.921 7.77028 508.503 6.18844C510.085 4.6066 492.685 6.18844 489.521 7.77028C486.358 9.35213 483.589 6.45735 485.756 5.53989C487.939 4.6066 491.103 3.02476 483.194 3.02476C475.285 3.02476 432.575 -0.138926 430.993 1.44292C429.411 3.02476 427.829 4.6066 423.084 4.6066H385.12C377.21 4.6066 329.755 4.6066 328.173 6.18844C326.591 7.77028 334.501 9.35213 332.919 10.934C331.337 12.5158 326.591 9.35213 323.428 9.35213C320.264 9.35213 312.355 7.77028 310.773 9.35213C309.191 10.934 306.028 14.0977 309.191 15.6795C312.355 17.2613 315.519 17.2613 320.264 17.2613C325.01 17.2613 325.01 18.8432 321.846 18.8432C318.682 18.8432 312.355 18.8432 317.1 20.425C321.846 22.0069 321.846 23.5887 318.682 23.5887C315.519 23.5887 311.232 26.0722 307.831 22.4656C304.446 18.8432 301.282 20.425 298.118 20.425C294.955 20.425 298.118 23.5887 299.7 23.5887C301.282 23.5887 294.955 26.7524 301.282 26.7524C307.609 26.7524 323.428 28.3342 328.173 26.7524C332.919 25.1705 345.574 17.2613 358.228 14.0977C370.883 10.934 393.029 4.6066 385.12 9.35213C377.21 14.0977 369.301 15.6795 369.301 15.6795C369.301 15.6795 362.974 17.2613 362.974 18.8432C362.974 20.425 356.646 22.0069 367.719 22.0069C378.792 22.0069 383.538 22.0069 386.701 26.7524C389.865 31.4979 388.283 33.839 386.701 35.8322C385.12 37.8253 386.701 39.4071 389.865 40.989C393.029 42.5708 393.029 44.4532 389.865 47.4745C386.701 50.48 380.374 56.8074 381.956 64.7166C383.538 72.6258 389.865 77.3713 394.611 80.535C399.356 83.6987 399.356 82.1169 402.52 77.3713C405.684 72.6258 416.756 58.3892 421.502 58.3892C426.248 58.3892 434.157 56.8074 437.32 55.2255C440.484 53.6437 440.484 50.48 446.811 50.48C453.139 50.48 467.375 45.7345 468.957 45.7345C470.539 45.7345 472.121 42.5708 467.375 42.5708Z M277.555 26.7525C280.718 26.7525 284.926 25.1706 288.359 22.7979C291.791 20.4251 290.209 18.8433 285.464 18.8433C285.464 18.8433 280.718 20.4251 279.136 22.0069C277.555 23.5888 274.249 18.8433 272.746 20.4251C271.227 22.0069 274.391 26.7525 277.555 26.7525Z M285.463 14.0977C288.627 15.6795 294.955 17.2613 294.955 15.6795C294.955 14.0977 288.627 9.35213 287.045 10.934C287.045 10.934 282.3 12.5158 285.463 14.0977Z M234.845 25.1705C239.59 28.3342 241.172 28.3342 247.5 28.3342C253.827 28.3342 258.857 25.5185 261.088 25.3445C263.318 25.1705 268.633 24.2847 265.976 22.3548C263.318 20.425 258.652 21.121 257.829 22.3548C257.007 23.5887 254.65 23.5887 251.075 22.7977C247.5 22.0068 230.099 22.0068 234.845 25.1705Z" fill="#E4ECF2" stroke="#A1BDD3" stroke-width="0.790921" stroke-miterlimit="10"/>
<path id="europe" d="M625.449 156.321C622.539 153.078 627.142 145.391 627.142 145.391C628.724 142.227 630.305 139.063 635.051 137.481C639.797 135.9 638.215 137.481 640.556 143.809C642.739 149.693 647.041 144.631 651.455 143.904C651.123 143.287 650.806 142.543 650.727 141.784C649.525 141.911 648.607 141.547 647.706 140.645C646.124 139.063 652.451 135.9 652.451 135.9C653.4 135.9 654.191 136.184 654.777 136.627C656.975 134.539 659.332 132.182 660.36 131.154C661.942 129.572 665.106 126.409 658.779 124.827C652.451 123.245 649.288 126.409 644.542 121.663C639.797 116.917 639.797 115.336 635.051 115.336C630.305 115.336 628.724 112.172 630.305 110.59C631.887 109.008 632.283 108.075 629.704 105.37C627.142 102.681 623.978 99.5172 620.814 99.5172C617.651 99.5172 614.487 93.1899 614.487 88.4443C614.487 83.6988 614.487 78.9533 617.651 77.3714C620.814 75.7896 625.56 74.2077 622.396 69.4622C619.233 64.7167 614.487 58.6582 614.487 54.5613C614.487 50.4643 611.323 47.0159 614.487 45.5764C615.816 44.9753 618.552 44.0578 621.273 43.2195C619.059 41.5743 614.724 39.4072 608.16 39.4072C600.25 39.4072 581.268 40.9891 576.523 45.7346C571.777 50.4801 568.614 59.9712 562.286 63.1349C555.959 66.2985 543.304 74.2077 544.886 78.9533C546.468 83.6988 546.468 93.1899 555.959 88.4443C565.45 83.6988 563.868 88.4443 565.45 91.608C567.032 94.7717 567.032 101.099 563.868 99.5172C560.704 97.9354 565.45 90.0262 562.286 90.0262C559.123 90.0262 554.377 91.608 555.959 99.5172C557.541 107.426 557.541 107.426 554.377 107.426C551.213 107.426 549.632 107.426 544.886 110.59C540.14 113.754 529.068 126.409 525.904 124.827C522.74 123.245 522.74 123.245 521.158 124.827C519.577 126.409 510.085 124.827 514.831 129.572C519.577 134.318 522.74 137.481 522.74 142.227C522.74 146.972 522.74 150.136 514.831 150.136C506.922 150.136 503.758 146.972 499.013 148.554C494.267 150.136 494.267 151.718 495.849 154.882C497.431 158.045 492.685 170.7 494.267 172.282C495.849 173.864 494.267 178.609 499.013 178.609C503.758 178.609 503.758 181.773 506.922 180.191C510.085 178.609 514.831 177.027 519.577 177.027C524.322 177.027 525.904 169.118 527.486 164.373C529.068 159.627 532.231 158.045 535.395 156.464C538.559 154.882 538.559 156.464 538.559 153.3C538.559 150.136 535.395 150.136 543.304 150.136C551.213 150.136 557.541 143.809 560.704 146.972C563.868 150.136 565.45 156.464 571.777 158.045C578.105 159.627 579.687 161.209 581.268 165.955C582.85 170.7 579.687 175.446 576.523 173.864C573.359 172.282 568.614 175.446 571.777 177.027C574.941 178.609 579.687 181.773 581.268 178.609C582.85 175.446 584.432 172.282 586.014 170.7C587.596 169.118 584.432 162.791 589.178 164.373C593.923 165.955 595.505 165.955 592.341 162.791C589.178 159.627 571.777 151.718 571.777 145.391C571.777 139.063 576.523 142.227 581.268 145.391C586.014 148.554 593.923 151.718 595.505 162.791C597.087 173.864 603.414 183.355 606.578 180.191C609.742 177.027 612.905 175.446 609.742 170.7C606.578 165.955 603.414 162.791 609.742 162.791C613.127 162.791 615.151 161.889 616.543 161.779C617.429 159.263 619.707 156.511 625.449 156.321ZM600.25 91.608C597.087 91.608 595.505 91.608 595.505 96.3535C595.505 101.099 597.087 101.099 593.923 104.263C590.759 107.426 586.014 102.681 581.268 104.263C576.523 105.845 570.195 104.263 567.032 102.681C563.868 101.099 573.359 99.5172 573.359 99.5172C579.687 97.9354 584.432 90.0262 585.903 86.1823C587.374 82.3384 586.014 82.117 582.85 77.3714C579.687 72.6259 592.341 67.8804 593.923 63.1349C595.505 58.3893 595.505 58.3893 601.832 59.9712C608.16 61.553 603.414 66.2985 598.669 67.8804C593.923 69.4622 595.505 72.6259 597.087 77.3714C598.669 82.117 603.414 80.5351 604.996 85.2806C606.578 90.0262 603.414 91.608 600.25 91.608Z M472.121 67.8804C480.03 67.8804 488.002 65.8398 490.344 62.8976C492.685 59.9712 492.653 55.8742 485.551 57.9148C478.448 59.9553 471.789 61.2208 469.574 59.0062C467.359 56.7917 465.778 58.3735 467.359 59.9553C468.941 61.5372 464.196 67.8646 472.105 67.8646L472.121 67.8804Z M500.594 104.263C499.013 104.263 497.431 105.845 497.431 109.008C497.431 112.172 491.103 118.373 497.431 116.854C503.758 115.336 507.128 116.459 508.599 111.144C510.07 105.829 513.249 101.099 506.922 101.099C503.758 101.099 502.176 104.263 500.594 104.263Z M513.249 99.7385C514.831 101.099 521.158 103.487 519.576 107.047C517.995 110.606 515.732 108.091 515.29 110.922C514.847 113.754 511.003 114.26 515.29 114.798C519.576 115.335 519.703 115.668 517.267 117.091C514.831 118.499 513.755 121.141 519.829 119.828C525.904 118.515 530.649 118.515 532.231 115.351C533.813 112.188 535.395 109.894 532.231 110.258C529.067 110.622 528.704 106.509 527.312 105.402C525.904 104.294 519.576 96.385 519.576 91.6395C519.576 88.4758 517.995 85.3121 513.249 90.0576C508.504 94.8032 511.667 98.4098 513.249 99.7701V99.7385Z M566.383 15.4421C571.777 18.8431 576.523 23.5886 578.105 20.4249C579.686 17.2613 583.688 15.4105 587.216 16.328C590.759 17.2613 600.962 19.8555 597.435 16.9765C593.923 14.0976 582.85 12.5157 579.686 12.5157C573.359 12.5157 560.989 12.0254 566.383 15.4421Z" fill="#E4ECF2" stroke="#A1BDD3" stroke-width="0.790921" stroke-miterlimit="10"/>
<path id="africa" d="M650.411 202.875C649.62 203.523 648.718 203.919 647.69 203.919C641.363 203.919 631.871 203.919 620.799 200.755C609.726 197.591 601.816 192.846 598.653 197.591C595.489 202.337 598.653 208.664 589.162 203.919C579.671 199.173 578.089 197.591 573.343 196.01C568.598 194.428 562.27 192.846 563.852 189.682C565.434 186.519 571.761 177.027 557.525 177.027C543.288 177.027 530.634 181.773 521.143 183.355C511.651 184.937 510.275 184.336 508.583 183.054C506.89 181.773 505.324 181.773 503.742 184.937C502.16 188.1 491.088 196.01 489.506 203.919C488.889 207.019 487.924 214.992 481.596 216.574C475.269 218.155 473.687 218.155 470.524 222.901C467.36 227.646 457.869 243.465 461.033 246.628C464.196 249.792 465.778 257.701 464.196 262.447C462.614 267.192 459.451 273.52 459.451 278.265C459.451 283.011 465.778 289.338 468.942 292.502C472.105 295.666 473.687 297.247 475.269 300.411C476.851 303.575 476.851 305.157 480.015 308.32C483.178 311.484 494.251 322.557 495.833 320.975C497.415 319.393 503.742 317.811 508.488 317.811C513.233 317.811 517.979 316.23 524.306 314.648C530.634 313.066 538.543 306.738 541.706 309.902C544.87 313.066 544.87 319.393 549.616 319.393C554.361 319.393 562.27 320.975 562.27 325.721C562.27 330.466 560.689 332.048 560.689 335.212C560.689 338.375 557.525 339.957 560.689 344.703C563.852 349.448 574.925 366.848 574.925 371.594C574.925 376.34 573.343 378.174 574.925 382.003C576.507 385.831 576.507 388.346 574.925 391.842C573.343 395.337 565.434 412.722 570.18 420.631C574.925 428.54 579.671 434.868 579.671 439.613C579.671 444.359 581.253 456.412 585.998 460.668C590.744 464.923 592.325 472.832 592.325 477.577C592.325 482.323 592.325 488.65 598.653 488.65C604.98 488.65 606.562 485.487 612.889 485.487C619.217 485.487 625.544 485.487 633.453 477.577C641.363 469.668 649.272 457.013 649.272 453.85C649.272 450.686 647.69 447.522 650.854 445.941C654.017 444.359 657.181 444.359 658.763 438.031C660.345 431.704 654.017 423.795 661.926 419.049C669.836 414.304 680.908 406.395 680.908 400.067C680.908 393.74 680.908 381.085 677.745 379.503C674.581 377.921 674.581 374.758 674.581 373.176C674.581 371.594 674.581 368.43 672.999 365.267C671.417 362.103 672.999 352.612 679.327 347.866C685.654 343.121 704.636 325.721 707.8 320.975C710.963 316.23 720.201 298.133 719.537 292.945C718.873 287.756 718.873 284.593 714.127 286.175C709.382 287.756 692.187 296.551 691.301 292.945C690.4 289.338 687.236 281.429 685.654 278.265C684.072 275.102 672.999 270.356 672.999 265.611C672.999 260.865 671.417 262.447 668.254 259.283C665.09 256.12 665.09 252.956 665.09 249.792C665.09 246.628 665.09 246.628 663.508 243.465C661.926 240.301 654.017 227.646 652.435 224.483C650.854 221.319 649.272 219.737 652.435 218.155C652.973 217.886 653.479 217.807 653.938 217.871C652.989 215.292 652.103 212.223 651.597 207.952C651.36 205.959 650.917 204.283 650.411 202.875Z M707.499 395.322C703.054 401.649 688.818 406.394 688.818 412.722C688.818 419.049 685.654 438.031 687.236 442.777C688.818 447.522 696.284 453.185 700.46 445.608C704.636 438.031 714.127 404.813 714.127 395.322C714.127 392.158 711.929 388.994 707.499 395.322Z" fill="#E4ECF2" stroke="#A1BDD3" stroke-width="0.790921" stroke-miterlimit="10"/>
<path id="oceania" d="M1093.79 441.195C1090.62 438.031 1085.88 431.704 1085.88 428.54C1085.88 425.377 1084.29 422.213 1081.13 420.631C1077.97 419.049 1076.39 417.467 1076.39 412.722C1076.39 407.976 1076.39 400.067 1073.22 400.067C1070.06 400.067 1068.48 398.485 1068.48 393.74C1068.48 388.994 1068.48 384.249 1065.31 388.994C1062.15 393.74 1062.15 398.881 1062.15 403.436C1062.15 407.992 1060.57 414.304 1057.4 414.304C1054.24 414.304 1043.17 407.976 1041.58 406.394C1040 404.813 1038.42 401.649 1040 398.485C1041.58 395.322 1047.91 388.994 1043.17 390.576C1038.42 392.158 1032.09 392.158 1030.51 388.994C1028.93 385.831 1027.35 387.412 1027.35 390.576C1027.35 393.74 1022.73 390.307 1019.5 395.179C1016.28 400.067 1016.28 403.231 1013.11 401.649C1009.95 400.067 1011.53 395.322 1006.78 396.903C1002.04 398.485 994.129 404.813 992.547 407.976C990.966 411.14 979.893 423.795 976.729 423.795C968.662 423.795 963.805 426.136 960.768 428.92C957.747 431.704 949.838 431.704 949.838 439.613C949.838 447.522 953.001 454.277 949.838 452.474C946.674 450.67 945.092 452.268 946.674 458.595C948.256 464.923 949.838 472.832 948.256 477.577C946.674 482.323 940.695 487.068 946.057 488.65C951.42 490.232 959.329 485.487 964.074 483.905C968.82 482.323 970.402 485.487 978.311 480.741C986.22 475.996 1013.62 470.127 1015.74 477.008C1017.86 483.905 1017.86 488.65 1021.02 485.487C1024.18 482.323 1028.93 479.159 1027.35 482.323C1025.77 485.487 1022.27 491.814 1026.38 488.65C1030.51 485.487 1028.93 487.068 1028.93 490.232C1028.93 493.396 1027.35 499.723 1032.09 502.887C1036.84 506.051 1041.7 504.469 1044.02 502.887C1046.33 501.305 1043.42 508.123 1048.83 504.706C1054.24 501.305 1060.57 501.305 1065.31 496.559C1070.06 491.814 1090.62 468.086 1092.2 463.341C1093.79 458.595 1096.95 444.359 1093.79 441.195Z M1043.17 512.378C1040 512.378 1035.26 512.378 1035.26 517.123C1035.26 521.869 1035.26 526.615 1040 521.869C1044.75 517.123 1047.91 512.378 1043.17 512.378Z M1155.48 494.978C1150.73 494.978 1145.99 494.978 1147.57 491.814C1149.15 488.65 1147.57 488.65 1147.57 485.487C1147.57 482.323 1145.99 475.995 1144.4 482.323C1142.82 488.65 1144.4 491.814 1141.24 494.978C1138.08 498.141 1134.91 499.723 1136.5 502.887C1138.08 506.05 1134.91 510.796 1128.59 510.796C1125.42 510.796 1127 506.05 1123.84 509.214C1120.68 512.378 1112.77 520.287 1106.44 521.869C1100.11 523.451 1082.71 531.36 1089.04 532.942C1095.37 534.524 1095.37 536.105 1101.69 531.36C1108.02 526.614 1125.42 515.146 1128.59 513.77C1131.75 512.378 1136.5 510.796 1138.08 509.214C1139.66 507.632 1160.22 494.978 1155.48 494.978Z M1064.68 347.17C1064.28 349.116 1063.95 351.9 1064.44 354.447C1065.31 358.939 1064.82 362.245 1063.49 364.539C1062.15 366.833 1060.57 367.323 1062.15 368.667C1063.43 369.743 1062.64 374.093 1062.29 376.972C1063.37 377.51 1064.41 377.905 1065.31 377.905C1068.47 377.905 1071.64 377.905 1073.22 374.742C1074.8 371.578 1079.55 369.996 1081.13 371.578C1082.71 373.16 1092.2 384.233 1098.53 382.651C1104.86 381.069 1098.53 377.905 1095.37 376.324C1092.2 374.742 1087.46 368.414 1089.04 366.833C1090.62 365.251 1091.97 362.245 1088.12 361.375C1084.29 360.505 1079.55 354.178 1073.22 351.014C1071.05 349.923 1067.95 348.483 1064.69 347.154L1064.68 347.17Z M1104.41 362.53C1106.44 360.521 1111.19 358.939 1108.02 354.194C1104.86 349.448 1099.19 348.341 1101.24 350.476C1103.28 352.612 1107.44 353.561 1105.35 356.25C1103.26 358.939 1103.96 360.679 1100.44 361.391C1100.44 361.391 1093.77 362.103 1095.35 363.685C1096.93 365.267 1102.37 364.555 1104.4 362.53H1104.41Z" fill="#E4ECF2" stroke="#A1BDD3" stroke-width="0.790921" stroke-miterlimit="10"/>
<path id="asia" d="M892.891 268.774C894.473 273.52 896.054 276.683 897.636 279.847C899.218 283.011 899.218 294.084 899.218 297.247C899.218 300.411 897.636 306.738 902.382 306.738C907.127 306.738 908.709 308.32 908.709 311.484C908.709 314.648 908.709 324.139 913.455 327.302C918.2 330.466 922.946 335.211 924.528 333.63C926.109 332.048 922.946 327.302 921.364 325.72C919.782 324.139 924.528 316.229 919.782 313.066C915.037 309.902 907.127 303.575 907.127 301.993C907.127 300.411 907.127 298.829 905.545 297.247C903.964 295.665 905.545 289.338 905.545 286.174C905.545 283.011 907.127 279.847 910.291 283.011C913.455 286.174 919.782 289.338 921.364 292.502C922.946 295.665 922.946 303.575 926.109 300.411C929.273 297.247 932.437 294.084 935.6 292.502C938.764 290.92 941.928 289.338 941.928 284.593C941.928 279.847 940.346 273.52 934.019 267.192C927.691 260.865 922.946 256.119 926.109 251.374C929.273 246.628 935.6 245.046 937.182 248.21C938.764 251.374 934.019 256.119 937.182 257.701C940.346 259.283 940.346 259.283 941.928 254.538C943.51 249.792 938.764 245.046 945.092 245.046C951.419 245.046 962.492 240.301 965.655 235.555C968.819 230.81 968.819 221.319 971.983 219.737C975.147 218.155 975.147 214.991 975.147 211.828C975.147 208.664 975.147 202.337 971.983 200.755C968.819 199.173 954.583 189.682 957.746 184.936C960.91 180.191 965.655 181.773 965.655 178.609C965.655 175.445 957.746 173.864 956.164 175.445C954.583 177.027 953.001 178.609 951.419 175.445C949.837 172.282 945.092 170.7 949.837 167.536C954.583 164.373 954.583 162.791 956.164 165.954C957.746 169.118 957.746 173.864 960.91 170.7C964.074 167.536 965.655 164.373 968.819 169.118C971.983 173.864 970.401 177.027 975.147 177.027C979.892 177.027 981.474 178.609 981.474 181.773C981.474 184.936 981.474 189.682 986.219 189.682C990.965 189.682 994.129 188.1 992.547 181.773C990.965 175.445 984.638 172.282 983.056 170.7C981.474 169.118 976.728 169.118 979.892 164.373C983.056 159.627 986.219 150.136 989.383 151.718C992.547 153.3 994.129 153.3 995.71 150.136C997.292 146.972 1002.04 131.154 1000.46 127.99C998.874 124.826 990.965 120.081 990.965 116.917C990.965 113.754 987.801 109.008 983.056 107.426C978.31 105.844 978.31 105.844 973.565 105.844C968.819 105.844 964.074 109.008 964.074 102.681C964.074 96.3533 967.237 85.2805 975.147 85.2805C983.056 85.2805 990.965 83.6986 995.71 85.2805C1000.46 86.8623 1005.2 86.8623 1008.37 86.8623C1011.53 86.8623 1009.95 85.2805 1006.78 83.6986C1003.62 82.1168 1003.62 75.7894 1006.78 75.7894C1009.95 75.7894 1013.11 75.7894 1014.69 77.3712C1016.27 78.9531 1017.86 80.5349 1019.44 78.9531C1021.02 77.3712 1025.77 75.7894 1025.77 78.9531C1025.77 82.1168 1024.18 85.2805 1024.18 86.8623C1024.18 88.4441 1017.86 91.6078 1022.6 97.9352C1027.35 104.263 1041.58 120.081 1043.17 120.081C1044.75 120.081 1049.49 121.663 1047.91 116.917C1046.33 112.172 1046.33 110.59 1047.91 110.59C1049.49 110.59 1044.75 105.844 1047.91 105.844C1051.07 105.844 1043.17 97.9352 1046.33 99.517C1049.49 101.099 1049.49 97.9352 1044.75 94.7715C1040 91.6078 1028.93 85.2805 1033.67 83.6986C1038.42 82.1168 1046.33 80.5349 1049.49 82.1168C1052.66 83.6986 1052.66 82.1168 1054.24 80.5349C1055.82 78.9531 1057.4 74.3025 1062.15 74.255C1066.89 74.2076 1071.64 72.6257 1065.31 69.462C1058.98 66.2983 1052.66 61.5528 1057.4 61.5528C1062.15 61.5528 1070.06 63.1347 1071.64 64.7165C1073.22 66.2983 1079.55 67.8802 1079.55 64.7165C1079.55 61.5528 1077.97 56.8073 1068.48 56.8073C1058.98 56.8073 1038.42 48.8981 1027.35 47.3162C1016.27 45.7344 989.383 45.7344 984.638 45.7344C979.892 45.7344 973.565 39.407 962.492 40.9889C951.419 42.5707 940.346 37.8252 934.019 36.2433C927.691 34.6615 913.455 36.2433 900.8 37.8252C888.145 39.407 886.563 40.9889 878.654 36.2433C870.745 31.4978 865.999 31.4978 858.09 33.0797C850.181 34.6615 820.126 31.4978 823.29 28.3341C826.453 25.1705 829.617 22.0068 820.126 22.0068C810.635 22.0068 794.817 18.8431 790.071 17.2612C785.325 15.6794 779.125 14.0976 780.643 17.2612C782.162 20.4249 791.653 20.4249 780.58 22.0068C769.507 23.5886 763.18 23.5886 760.016 26.7523C756.852 29.916 745.779 31.4978 747.361 33.0797C748.943 34.6615 747.361 37.8252 737.87 37.8252C728.379 37.8252 728.379 36.2433 726.797 34.6615C725.215 33.0797 714.143 31.4978 715.724 36.2433C717.306 40.9889 717.306 47.3162 712.561 45.7344C707.815 44.1526 685.669 44.1526 688.833 36.2433C691.997 28.3341 696.742 25.1705 703.07 25.1705C709.397 25.1705 712.561 20.4249 701.488 22.0068C690.415 23.5886 680.924 23.5886 677.76 29.916C674.597 36.2433 671.433 37.8252 677.76 39.407C684.088 40.9889 695.16 44.1526 693.579 45.7344C691.997 47.3162 690.415 50.4799 684.088 48.8981C677.76 47.3162 671.433 50.4799 668.269 52.0618C665.105 53.6436 665.106 50.4799 660.36 48.8981C655.615 47.3162 650.869 52.0618 646.123 50.4799C641.378 48.8981 623.978 45.7344 622.396 44.1526C622.127 43.8836 621.731 43.5515 621.273 43.2193C618.552 44.0735 615.815 44.9751 614.487 45.5762C611.323 47.0157 614.487 50.4641 614.487 54.5611C614.487 58.658 619.232 64.7165 622.396 69.462C625.56 74.2076 620.814 75.7894 617.65 77.3712C614.487 78.9531 614.487 83.6986 614.487 88.4441C614.487 93.1897 617.65 99.517 620.814 99.517C623.978 99.517 627.141 102.681 629.704 105.37C632.267 108.059 631.887 109.008 630.305 110.59C628.723 112.172 630.305 115.335 635.051 115.335C639.796 115.335 639.796 116.917 644.542 121.663C649.287 126.408 652.451 123.245 658.778 124.826C665.106 126.408 661.942 129.572 660.36 131.154C659.332 132.182 656.975 134.539 654.776 136.627C656.137 137.655 656.247 139.538 654.033 140.645C652.672 141.325 651.628 141.689 650.727 141.784C650.806 142.527 651.122 143.271 651.454 143.904C651.786 143.84 652.119 143.809 652.451 143.809C657.196 143.809 673.015 153.3 673.015 158.045C673.015 162.791 658.778 159.627 654.033 158.045C649.287 156.463 646.123 158.045 638.214 159.627C630.305 161.209 628.723 159.627 625.56 156.463C625.512 156.416 625.496 156.368 625.449 156.321C619.707 156.511 617.429 159.263 616.543 161.778C617.745 161.683 618.489 162.174 619.232 164.373C620.814 169.118 620.814 178.609 628.723 181.773C636.632 184.936 639.796 180.191 642.96 181.773C646.123 183.355 649.287 183.355 650.869 181.773C652.451 180.191 655.615 183.355 655.615 186.518C655.615 189.16 654.491 199.553 650.426 202.875C650.932 204.298 651.375 205.975 651.612 207.952C652.119 212.223 653.02 215.292 653.954 217.87C656.2 218.171 657.734 221.857 660.36 224.483C663.524 227.646 669.851 237.137 669.851 240.301C669.851 243.465 671.433 248.21 674.597 251.374C677.76 254.538 687.251 265.61 687.251 268.774C687.251 271.938 687.251 279.847 690.415 281.429C693.579 283.011 695.16 279.847 698.324 279.847C701.488 279.847 709.397 278.265 710.979 276.683C712.561 275.101 723.634 273.52 723.634 270.356C723.634 267.192 726.797 265.61 728.379 265.61C729.961 265.61 736.288 260.865 737.87 259.283C739.452 257.701 744.198 257.701 744.198 254.538C744.198 251.374 745.779 246.628 747.361 246.628C748.943 246.628 752.107 241.883 748.943 238.719C745.779 235.555 739.452 235.555 737.87 230.81C736.288 226.064 733.125 219.737 739.452 224.483C745.779 229.228 747.361 230.81 756.852 230.81C766.343 230.81 771.089 229.228 775.834 232.392C780.58 235.555 783.744 245.046 788.489 246.628C793.235 248.21 799.562 243.465 799.562 251.374C799.562 259.283 801.144 268.774 804.308 273.52C807.471 278.265 813.799 295.665 816.962 298.829C820.126 301.993 820.126 305.156 823.29 301.993C826.453 298.829 829.617 295.665 829.617 290.92C829.617 286.174 828.035 270.356 831.199 268.774C834.363 267.192 837.526 265.61 842.272 260.865C847.017 256.119 853.345 252.956 853.345 249.792C853.345 246.628 853.345 245.046 856.508 245.046C859.672 245.046 865.999 246.628 867.581 245.046C869.163 243.465 870.745 243.465 870.745 246.628C870.745 249.792 878.654 256.119 880.236 259.283C881.818 262.447 878.654 270.356 883.4 270.356C888.145 270.356 891.309 264.029 892.891 268.774Z M1008.37 127.99C1011.53 127.99 1011.07 124.827 1009.73 123.245C1008.38 121.663 995.711 109.008 992.547 109.008C992.547 109.008 989.384 109.23 992.547 113.074C995.711 116.917 1003.62 121.663 1005.2 126.408C1006.78 131.154 1008.37 137.481 1011.53 137.481C1014.69 137.481 1005.2 127.99 1008.37 127.99Z M1021.02 191.264C1021.02 189.682 1021.91 187.61 1023.05 187.056C1024.18 186.518 1028.93 189.682 1030.51 186.518C1032.09 183.355 1030.51 181.235 1030.51 177.549C1030.51 173.864 1030.51 164.373 1027.35 162.791C1024.18 161.209 1016.27 156.463 1021.02 156.463C1025.77 156.463 1027.35 156.463 1028.93 154.882C1030.51 153.3 1032.09 148.554 1025.77 148.554C1019.44 148.554 1022.6 148.554 1021.02 146.972C1018.52 144.473 1013.11 145.39 1016.27 148.554C1019.44 151.718 1014.19 152.351 1015.23 155.989C1016.28 159.627 1021.02 159.437 1021.02 161.905C1021.02 164.373 1024.18 170.7 1022.6 175.445C1021.02 180.191 1015.48 177.233 1015.09 180.302C1014.69 183.355 1016.27 184.937 1011.53 184.937C1006.78 184.937 996.549 189.207 1001.66 190.236C1006.78 191.264 1014.69 186.518 1016.27 189.682C1017.86 192.846 1021.02 192.846 1021.02 191.264Z M1000.25 200.091C1002.02 202.337 1003.6 206.813 1005.19 202.194C1006.77 197.591 1005.19 197.591 1005.19 196.009C1005.19 196.009 1000.58 192.846 998.131 196.009C995.695 199.173 998.463 197.844 1000.23 200.091H1000.25Z M930.856 354.194C932.437 347.866 932.437 344.703 927.692 346.285C922.946 347.866 921.364 344.703 921.364 341.539C921.364 338.375 919.783 332.048 913.455 328.884C907.128 325.721 902.382 319.393 899.219 317.811C899.219 317.811 886.564 311.484 892.891 319.393C899.219 327.302 907.128 335.212 910.292 341.539C913.455 347.866 918.201 362.103 924.528 362.103C930.856 362.103 929.274 360.521 930.856 354.194Z M830.25 300.411C828.036 308.32 830.25 312.322 833.098 311.12C835.945 309.902 837.527 308.32 835.945 300.411C835.502 298.212 832.465 292.502 830.25 300.411Z M976.729 335.212C979.892 333.63 983.056 335.212 979.892 330.466C976.729 325.721 973.565 322.557 976.729 319.393C979.892 316.229 982.819 312.749 978.991 311.326C975.147 309.902 973.565 305.157 970.401 309.902C967.238 314.648 954.583 327.302 953.001 327.302C949.458 327.302 949.837 332.048 946.674 330.466C943.51 328.884 940.346 328.884 940.346 333.63C940.346 338.375 945.092 351.03 949.837 352.612C954.583 354.194 971.983 358.939 971.983 354.194C971.983 349.448 971.445 343.595 973.296 341.776C975.147 339.957 973.565 336.793 976.729 335.212Z M1062.15 368.683C1060.57 367.355 1062.15 366.849 1063.49 364.555C1064.84 362.261 1065.31 358.939 1064.44 354.463C1063.95 351.916 1064.3 349.132 1064.68 347.186C1058.41 344.655 1051.57 342.631 1049.48 344.719C1046.31 347.882 1039.99 354.21 1038.4 346.3C1037.79 343.2 1038.4 339.973 1033.66 339.973C1028.91 339.973 1025.75 339.973 1028.91 344.719C1032.08 349.464 1032.08 354.21 1035.24 354.21C1038.4 354.21 1044.73 357.373 1047.9 358.955C1051.06 360.537 1055.8 365.282 1054.22 368.446C1052.64 371.61 1051.69 374.062 1054.54 373.635C1056.58 373.318 1059.57 375.644 1062.27 377.004C1062.62 374.125 1063.41 369.775 1062.13 368.699L1062.15 368.683Z M960.767 372.195C954.582 371.594 953.001 368.43 956.164 368.43C959.328 368.43 960.91 366.848 954.582 366.848C948.255 366.848 943.509 368.43 938.764 366.848C935.41 365.725 930.855 363.685 929.273 365.267C927.691 366.848 927.691 368.43 935.6 370.012C943.509 371.594 953.001 374.758 959.328 374.758C965.655 374.758 966.968 372.812 960.767 372.195Z M976.729 232.392C973.565 235.555 975.147 238.071 976.729 239.969C978.311 241.867 979.893 243.465 979.893 235.555C979.893 232.392 979.893 229.228 976.729 232.392Z M981.126 272.808C984.622 275.102 983.04 278.265 986.204 278.265C989.367 278.265 994.113 278.265 995.695 281.429C997.277 284.593 1002.02 287.756 1000.44 287.756C998.858 287.756 998.858 289.338 998.858 290.92C998.858 292.502 1001.04 292.502 1001.53 290.92C1002.02 289.338 1004.21 288.737 1001.53 285.874C998.858 283.011 997.277 278.265 994.113 276.684C990.949 275.102 984.622 275.102 986.204 270.356C987.785 265.611 987.785 267.192 987.785 264.029C987.785 260.865 987.785 257.701 984.622 257.701C981.458 257.701 980.92 260.596 981.189 263.096C981.458 265.611 977.63 270.514 981.126 272.808Z M1005.9 306.169C1008.37 306.738 1007.35 302.04 1006.28 299.636C1005.2 297.247 1004.22 296.583 1001.55 299.288C998.874 301.993 994.129 305.157 995.711 300.411C997.292 295.666 999.649 297.959 998.479 295.223C997.292 292.502 995.711 290.92 992.547 290.92C990.316 290.92 988.102 290.129 990.332 292.106C992.547 294.084 990.965 297.295 992.547 299.636C994.129 301.977 994.129 302.515 992.547 303.828C990.965 305.141 990.174 307.529 993.733 306.343C997.292 305.141 999.792 305.03 999.333 306.675C998.874 308.32 1001.94 314.331 1005.15 311.326C1008.37 308.32 1003.45 305.615 1005.9 306.169Z M994.129 336.793C1000.46 336.793 1005.2 333.63 1000.46 333.63C996.913 333.63 994.714 334.705 991.25 334.959C987.786 335.212 986.22 335.212 983.056 339.957C979.892 344.703 979.354 351.441 981.205 356.772C983.056 362.103 984.638 363.685 984.638 360.521C984.638 357.357 983.056 351.03 984.638 351.03C986.22 351.03 987.849 350.445 989.399 353.102C990.965 355.776 992.547 358.939 994.129 357.357C995.711 355.776 994.129 352.612 992.547 351.03C990.965 349.448 989.969 347.281 991.25 345.209C992.547 343.121 997.862 341.428 991.25 342.282C984.638 343.137 983.277 341.539 984.749 339.957C986.22 338.375 987.801 336.793 994.129 336.793Z M1017.3 327.476C1019.44 325.721 1016.27 324.139 1014.69 325.721C1013.11 327.302 1013.11 338.375 1014.69 339.957C1016.27 341.539 1014.69 338.375 1016.27 336.793C1017.86 335.212 1018.33 333.63 1017.3 332.048C1016.27 330.466 1015.17 329.232 1017.3 327.476Z M757.565 12.4841C761.598 14.0976 767.926 15.6795 772.671 15.6795C777.417 15.6795 781.182 14.0502 775.345 12.4841C769.508 10.9339 764.762 9.35209 764.762 9.35209C760.016 7.77024 753.531 10.8865 757.565 12.4841Z M888.145 28.3343C892.891 29.9161 902.382 29.9161 905.546 28.3343C908.709 26.7524 903.964 25.1706 899.218 25.1706C894.473 25.1706 891.309 23.5887 891.309 23.5887C888.145 23.5887 883.4 26.7524 888.145 28.3343Z" fill="#E4ECF2" stroke="#A1BDD3" stroke-width="0.790921" stroke-miterlimit="10"/>
</svg>
